<svg width="30" height="30" viewBox="0 0 30 30" fill="none" xmlns="http://www.w3.org/2000/svg">
<path fill-rule="evenodd" clip-rule="evenodd" d="M27.2437 19.7438C24.8707 20.6644 22.2812 20.8752 19.7905 20.3505C17.2998 19.8257 15.0154 18.5881 13.2155 16.7882C11.4157 14.9884 10.178 12.704 9.65326 10.2133C9.1285 7.72259 9.3393 5.13304 10.26 2.76001C7.40957 3.87085 5.03647 5.94211 3.55044 8.61616C2.06441 11.2902 1.55872 14.3992 2.12067 17.4064C2.68263 20.4136 4.27696 23.1301 6.62839 25.0871C8.97983 27.044 11.9408 28.1185 15 28.125C17.648 28.1257 20.2343 27.3256 22.4194 25.8299C24.6045 24.3341 26.2862 22.2126 27.2437 19.7438V19.7438Z" fill="#3F3F46"/>
</svg>
