<svg width="25" height="25" viewBox="0 0 25 25" fill="none" xmlns="http://www.w3.org/2000/svg">
<path fill-rule="evenodd" clip-rule="evenodd" d="M14.8282 1.82815C14.2344 -0.609385 10.7656 -0.609385 10.1718 1.82815C10.0832 2.19443 9.90928 2.53461 9.66432 2.821C9.41937 3.10739 9.11025 3.3319 8.76214 3.47626C8.41402 3.62062 8.03674 3.68075 7.661 3.65176C7.28526 3.62277 6.92167 3.50548 6.59982 3.30943C4.456 2.00316 2.0028 4.45632 3.30909 6.6001C4.15286 7.9845 3.4044 9.79078 1.82935 10.1736C-0.609785 10.7658 -0.609785 14.2362 1.82935 14.8268C2.19574 14.9156 2.53598 15.0896 2.82237 15.3347C3.10876 15.5799 3.33321 15.8892 3.47744 16.2375C3.62166 16.5858 3.68159 16.9632 3.65233 17.339C3.62308 17.7149 3.50547 18.0785 3.30909 18.4003C2.0028 20.5441 4.456 22.9972 6.59982 21.691C6.92161 21.4946 7.28523 21.377 7.66107 21.3477C8.03692 21.3185 8.41436 21.3784 8.76266 21.5226C9.11097 21.6668 9.42028 21.8913 9.66542 22.1777C9.91057 22.4641 10.0846 22.8043 10.1734 23.1707C10.7656 25.6098 14.236 25.6098 14.8266 23.1707C14.9157 22.8045 15.0899 22.4645 15.3351 22.1783C15.5803 21.8921 15.8896 21.6678 16.2378 21.5236C16.5859 21.3794 16.9633 21.3195 17.339 21.3485C17.7147 21.3776 18.0783 21.4949 18.4002 21.691C20.544 22.9972 22.9972 20.5441 21.6909 18.4003C21.4949 18.0784 21.3776 17.7149 21.3485 17.3391C21.3194 16.9634 21.3794 16.5861 21.5236 16.2379C21.6677 15.8897 21.8921 15.5804 22.1782 15.3352C22.4644 15.0901 22.8045 14.9159 23.1706 14.8268C25.6098 14.2346 25.6098 10.7642 23.1706 10.1736C22.8043 10.0848 22.464 9.9108 22.1776 9.66566C21.8912 9.42053 21.6668 9.11121 21.5226 8.76292C21.3783 8.41462 21.3184 8.03718 21.3477 7.66135C21.3769 7.28551 21.4945 6.92189 21.6909 6.6001C22.9972 4.45632 20.544 2.00316 18.4002 3.30943C18.0784 3.50581 17.7148 3.62341 17.3389 3.65267C16.9631 3.68192 16.5856 3.62199 16.2373 3.47777C15.889 3.33355 15.5797 3.10911 15.3346 2.82272C15.0894 2.53633 14.9154 2.19609 14.8266 1.82972L14.8282 1.82815ZM12.5 17.1878C13.7432 17.1878 14.9356 16.6939 15.8147 15.8148C16.6938 14.9357 17.1876 13.7434 17.1876 12.5002C17.1876 11.257 16.6938 10.0647 15.8147 9.18558C14.9356 8.30649 13.7432 7.81262 12.5 7.81262C11.2568 7.81262 10.0644 8.30649 9.18533 9.18558C8.30623 10.0647 7.81235 11.257 7.81235 12.5002C7.81235 13.7434 8.30623 14.9357 9.18533 15.8148C10.0644 16.6939 11.2568 17.1878 12.5 17.1878Z" fill="#3F3F46"/>
</svg>
