<svg width="24" height="24" viewBox="0 0 24 24" fill="none" xmlns="http://www.w3.org/2000/svg">
<path d="M12 19C12.2196 19 12.4311 19.0826 12.5927 19.2313C12.7542 19.3801 12.8539 19.5841 12.872 19.803L12.875 19.875V21.625C12.8749 21.8508 12.7875 22.0677 12.6312 22.2306C12.4748 22.3934 12.2616 22.4896 12.036 22.4989C11.8104 22.5082 11.59 22.4299 11.4208 22.2805C11.2516 22.131 11.1467 21.922 11.128 21.697L11.125 21.625V19.875C11.125 19.3915 11.517 19 12 19ZM17.928 16.695L17.9905 16.751L19.2405 17.9885C19.4002 18.1466 19.493 18.3602 19.4995 18.5848C19.506 18.8095 19.4259 19.0281 19.2756 19.1952C19.1254 19.3624 18.9166 19.4653 18.6925 19.4827C18.4684 19.5001 18.2462 19.4305 18.072 19.2885L18.0095 19.232L16.7595 17.995C16.5997 17.8369 16.507 17.6233 16.5004 17.3987C16.4939 17.174 16.5741 16.9554 16.7243 16.7882C16.8746 16.6211 17.0834 16.5182 17.3075 16.5008C17.5316 16.4834 17.7538 16.553 17.928 16.695ZM7.23647 16.7525C7.39037 16.9062 7.48152 17.1117 7.49215 17.3289C7.50278 17.5461 7.43213 17.7595 7.29397 17.9275L7.23747 17.99L6.00097 19.2285C5.84215 19.3875 5.62824 19.4792 5.40359 19.4848C5.17894 19.4904 4.96076 19.4093 4.79428 19.2583C4.62779 19.1074 4.52575 18.8982 4.50931 18.6741C4.49287 18.45 4.56329 18.2281 4.70597 18.0545L4.76247 17.992L5.99897 16.7535C6.08016 16.6722 6.17657 16.6076 6.2827 16.5636C6.38883 16.5195 6.5026 16.4968 6.61752 16.4967C6.73243 16.4966 6.84624 16.5191 6.95244 16.563C7.05864 16.6069 7.15516 16.6713 7.23647 16.7525V16.7525ZM12 6.5405C15.015 6.5405 17.46 8.9845 17.46 12C17.46 15.015 15.015 17.46 12 17.46C8.98497 17.46 6.53997 15.015 6.53997 12C6.53997 8.985 8.98497 6.54 12 6.54V6.5405ZM4.12497 11.125C4.35073 11.1251 4.56771 11.2125 4.73057 11.3688C4.89342 11.5252 4.98954 11.7384 4.99884 11.964C5.00813 12.1895 4.92989 12.41 4.78045 12.5792C4.63102 12.7484 4.42196 12.8533 4.19697 12.872L4.12497 12.875H2.37497C2.14922 12.8749 1.93223 12.7875 1.76938 12.6312C1.60653 12.4748 1.51041 12.2616 1.50111 12.036C1.49181 11.8105 1.57006 11.59 1.7195 11.4208C1.86893 11.2516 2.07799 11.1467 2.30297 11.128L2.37497 11.125H4.12497ZM21.625 11.125C21.8507 11.1251 22.0677 11.2125 22.2306 11.3688C22.3934 11.5252 22.4895 11.7384 22.4988 11.964C22.5081 12.1895 22.4299 12.41 22.2805 12.5792C22.131 12.7484 21.922 12.8533 21.697 12.872L21.625 12.875H19.875C19.6492 12.8749 19.4322 12.7875 19.2694 12.6312C19.1065 12.4748 19.0104 12.2616 19.0011 12.036C18.9918 11.8105 19.0701 11.59 19.2195 11.4208C19.3689 11.2516 19.578 11.1467 19.803 11.128L19.875 11.125H21.625ZM5.91797 4.714L5.98047 4.771L7.21797 6.0085C7.37661 6.1675 7.46803 6.38141 7.47331 6.60594C7.47858 6.83048 7.39732 7.04845 7.24633 7.21472C7.09535 7.381 6.88621 7.48285 6.6622 7.49919C6.4382 7.51553 6.21649 7.44511 6.04297 7.3025L5.98047 7.246L4.74297 6.0085C4.58311 5.84977 4.49063 5.6355 4.48479 5.4103C4.47894 5.18509 4.56018 4.96631 4.71159 4.7995C4.86301 4.63269 5.07292 4.53071 5.29763 4.51478C5.52235 4.49886 5.74455 4.57021 5.91797 4.714V4.714ZM19.2295 4.769C19.3834 4.92261 19.4747 5.12807 19.4854 5.3453C19.4961 5.56253 19.4256 5.77597 19.2875 5.944L19.2305 6.007L17.9945 7.2455C17.8356 7.40448 17.6217 7.49625 17.3971 7.5018C17.1724 7.50736 16.9543 7.42626 16.7878 7.27533C16.6213 7.1244 16.5193 6.9152 16.5028 6.69108C16.4864 6.46696 16.5568 6.24511 16.6995 6.0715L16.7555 6.009L17.992 4.7705C18.0732 4.68917 18.1696 4.62464 18.2757 4.58057C18.3818 4.53651 18.4956 4.51378 18.6105 4.51369C18.7254 4.51359 18.8392 4.53614 18.9454 4.58003C19.0516 4.62392 19.1482 4.6883 19.2295 4.7695V4.769ZM12 1.5C12.2196 1.50001 12.4311 1.58259 12.5927 1.73134C12.7542 1.88009 12.8539 2.08415 12.872 2.303L12.875 2.375V4.125C12.8749 4.35076 12.7875 4.56774 12.6312 4.73059C12.4748 4.89345 12.2616 4.98957 12.036 4.99886C11.8104 5.00816 11.59 4.92991 11.4208 4.78048C11.2516 4.63104 11.1467 4.42198 11.128 4.197L11.125 4.125V2.375C11.125 1.892 11.517 1.5 12 1.5Z" fill="#3F3F46"/>
</svg>
