<svg width="800" height="527" viewBox="0 0 800 527" fill="none" xmlns="http://www.w3.org/2000/svg">
<path d="M672.094 109.957C696.242 196.471 663.072 292.51 597.702 354.522C532.332 416.534 438.806 446.075 347.13 444.923C281.687 444.089 214.515 427.615 162.75 388.01C110.986 348.406 77.3142 283.305 86.7526 220.251C90.3196 196.435 100.628 172.446 120.412 158.24C152 135.502 196.226 143.616 234.654 152.773C273.082 161.929 317.258 170.154 348.957 147.551C373.313 130.17 382.69 99.6112 398.784 74.7036C426.156 32.4023 476.621 5.32508 528.189 5.43539C558.93 5.50733 588.922 14.9251 614.186 32.4391C639.449 49.953 658.791 74.7351 669.642 103.497L672.094 109.957Z" fill="#F5F5F5"/>
<path d="M761.183 525.37C761.183 525.554 591.659 525.688 382.58 525.688C173.501 525.688 3.95227 525.554 3.95227 525.37C3.95227 525.186 173.439 525.051 382.58 525.051C591.721 525.051 761.183 525.161 761.183 525.37Z" fill="#263238"/>
<path d="M387.25 346.273H377.481V525.37H387.25V346.273Z" fill="#263238"/>
<path d="M311.62 525.37L379.798 459.803L384.688 464.167L321.169 525.37H311.62Z" fill="#263238"/>
<path d="M452.767 525.223L384.725 459.803L379.846 464.167L443.354 525.37L452.767 525.223Z" fill="#263238"/>
<path d="M603.733 55.9369H163.609V376.745H603.733V55.9369Z" fill="white"/>
<path d="M603.733 376.733C603.733 374.588 603.623 250.479 603.463 55.9371L603.733 56.1945H163.682L164.001 55.8758C164.001 170.951 164.001 280.044 164.001 376.672L163.707 376.39L603.831 376.672L163.707 376.966H163.412V376.672C163.412 280.044 163.412 170.951 163.412 55.8758V55.5571H163.768H603.819H604.076V55.8145C603.831 250.442 603.733 374.6 603.733 376.733Z" fill="#263238"/>
<path d="M219.847 89.4128H216.17V88.4445H224.75V89.4128H221.073V99.0474H219.957L219.847 89.4128Z" fill="#263238"/>
<path d="M225.387 93.6908C225.353 92.5835 225.65 91.4912 226.241 90.5537C226.831 89.6163 227.688 88.8764 228.701 88.4287C229.714 87.9811 230.838 87.8461 231.929 88.0411C233.019 88.236 234.027 88.752 234.823 89.523C235.618 90.294 236.165 91.285 236.394 92.3689C236.623 93.4528 236.524 94.5804 236.108 95.6073C235.692 96.6342 234.98 97.5137 234.061 98.1331C233.143 98.7525 232.06 99.0837 230.952 99.0842C230.228 99.116 229.504 98.9995 228.826 98.7419C228.148 98.4843 227.529 98.091 227.008 97.5862C226.487 97.0813 226.075 96.4754 225.796 95.8056C225.517 95.1358 225.378 94.4162 225.387 93.6908ZM235.39 93.6908C235.402 92.8078 235.151 91.941 234.669 91.201C234.187 90.461 233.495 89.8812 232.683 89.5354C231.87 89.1895 230.973 89.0933 230.106 89.259C229.238 89.4247 228.44 89.8448 227.812 90.4658C227.184 91.0868 226.755 91.8806 226.579 92.7462C226.404 93.6118 226.49 94.51 226.827 95.3264C227.164 96.1428 227.736 96.8405 228.471 97.3307C229.205 97.8209 230.069 98.0814 230.952 98.0791C231.536 98.0975 232.117 97.997 232.66 97.7836C233.204 97.5702 233.698 97.2485 234.113 96.8379C234.528 96.4274 234.856 95.9367 235.075 95.3956C235.295 94.8546 235.401 94.2745 235.39 93.6908Z" fill="#263238"/>
<path d="M242.99 88.4445H247.304C250.687 88.4445 252.98 90.6263 252.98 93.7398C252.98 96.8532 250.687 99.0474 247.304 99.0474H242.99V88.4445ZM247.243 98.079C247.831 98.1103 248.42 98.0214 248.973 97.8178C249.526 97.6142 250.032 97.3001 250.459 96.8947C250.887 96.4892 251.227 96.0009 251.46 95.4596C251.693 94.9182 251.813 94.3352 251.813 93.7459C251.813 93.1567 251.693 92.5736 251.46 92.0322C251.227 91.4909 250.887 91.0026 250.459 90.5972C250.032 90.1917 249.526 89.8776 248.973 89.674C248.42 89.4704 247.831 89.3815 247.243 89.4128H244.056V98.079H247.243Z" fill="#263238"/>
<path d="M254.561 93.6908C254.527 92.5835 254.824 91.4912 255.414 90.5537C256.004 89.6163 256.861 88.8764 257.874 88.4287C258.888 87.9811 260.012 87.8461 261.102 88.0411C262.193 88.236 263.201 88.752 263.996 89.523C264.792 90.294 265.339 91.285 265.568 92.3689C265.797 93.4528 265.697 94.5804 265.281 95.6073C264.866 96.6342 264.153 97.5137 263.235 98.1331C262.316 98.7525 261.234 99.0837 260.126 99.0842C259.401 99.116 258.677 98.9995 257.999 98.7419C257.321 98.4843 256.702 98.091 256.182 97.5862C255.661 97.0813 255.248 96.4754 254.97 95.8056C254.691 95.1358 254.552 94.4162 254.561 93.6908ZM264.563 93.6908C264.575 92.8078 264.324 91.941 263.842 91.201C263.36 90.461 262.669 89.8812 261.856 89.5354C261.044 89.1895 260.147 89.0933 259.279 89.259C258.412 89.4247 257.613 89.8448 256.985 90.4658C256.357 91.0868 255.928 91.8806 255.753 92.7462C255.578 93.6118 255.664 94.51 256.001 95.3264C256.337 96.1428 256.909 96.8405 257.644 97.3307C258.379 97.8209 259.243 98.0814 260.126 98.0791C260.709 98.0975 261.29 97.997 261.834 97.7836C262.377 97.5702 262.872 97.2485 263.287 96.8379C263.702 96.4274 264.029 95.9367 264.249 95.3956C264.468 94.8546 264.575 94.2745 264.563 93.6908Z" fill="#263238"/>
<path d="M375.213 88.4445L371.646 99.0474H370.42L367.319 90.0134L364.181 99.0474H363.017L359.45 88.4445H360.602L363.654 97.5642L366.816 88.4445H367.858L370.984 97.601L374.085 88.4445H375.213Z" fill="#263238"/>
<path d="M376.193 93.6908C376.159 92.5835 376.456 91.4912 377.047 90.5537C377.637 89.6163 378.494 88.8764 379.507 88.4287C380.521 87.9811 381.645 87.8461 382.735 88.0411C383.826 88.236 384.833 88.752 385.629 89.523C386.424 90.294 386.972 91.285 387.201 92.3689C387.43 93.4528 387.33 94.5804 386.914 95.6073C386.499 96.6342 385.786 97.5137 384.867 98.1331C383.949 98.7525 382.866 99.0837 381.758 99.0842C381.034 99.116 380.31 98.9995 379.632 98.7419C378.954 98.4843 378.335 98.091 377.814 97.5862C377.293 97.0813 376.881 96.4754 376.602 95.8056C376.324 95.1358 376.184 94.4162 376.193 93.6908ZM386.196 93.6908C386.208 92.8078 385.957 91.941 385.475 91.201C384.993 90.461 384.302 89.8812 383.489 89.5354C382.676 89.1895 381.779 89.0933 380.912 89.259C380.044 89.4247 379.246 89.8448 378.618 90.4658C377.99 91.0868 377.561 91.8806 377.386 92.7462C377.21 93.6118 377.297 94.51 377.633 95.3264C377.97 96.1428 378.542 96.8405 379.277 97.3307C380.011 97.8209 380.875 98.0814 381.758 98.0791C382.346 98.1062 382.934 98.0119 383.484 97.8023C384.034 97.5926 384.535 97.272 384.956 96.8604C385.377 96.4488 385.708 95.955 385.93 95.4097C386.152 94.8644 386.259 94.2793 386.245 93.6908H386.196Z" fill="#263238"/>
<path d="M397.069 99.0471L394.617 95.6395C394.347 95.6395 394.078 95.6395 393.771 95.6395H390.927V99.0104H389.812V88.4075H393.771C396.468 88.4075 398.098 89.7681 398.098 92.0848C398.131 92.8353 397.906 93.5744 397.459 94.1789C397.013 94.7834 396.374 95.2167 395.647 95.4066L398.233 99.0839L397.069 99.0471ZM397.007 92.0848C397.007 90.381 395.88 89.4126 393.771 89.4126H390.952V94.7324H393.771C395.88 94.7324 397.007 93.6905 397.007 92.0848Z" fill="#263238"/>
<path d="M404.055 94.0585L401.898 96.2526V99.0474H400.782V88.4445H401.898V94.9165L408.113 88.5057H409.4L404.815 93.3108L409.718 99.1086H408.395L404.055 94.0585Z" fill="#263238"/>
<path d="M493.022 88.4445H497.336C500.732 88.4445 503.012 90.6263 503.012 93.7398C503.012 96.8532 500.732 99.0474 497.336 99.0474H493.022V88.4445ZM497.275 98.079C497.863 98.1103 498.452 98.0214 499.005 97.8178C499.558 97.6142 500.064 97.3001 500.491 96.8947C500.919 96.4892 501.259 96.0009 501.492 95.4596C501.725 94.9182 501.845 94.3352 501.845 93.7459C501.845 93.1567 501.725 92.5736 501.492 92.0322C501.259 91.4909 500.919 91.0026 500.491 90.5972C500.064 90.1917 499.558 89.8776 499.005 89.674C498.452 89.4704 497.863 89.3815 497.275 89.4128H494.113V98.079H497.275Z" fill="#263238"/>
<path d="M504.593 93.6908C504.559 92.5835 504.856 91.4912 505.446 90.5537C506.037 89.6163 506.893 88.8764 507.907 88.4287C508.92 87.9811 510.044 87.8461 511.135 88.0411C512.225 88.236 513.233 88.752 514.028 89.523C514.824 90.294 515.371 91.285 515.6 92.3689C515.829 93.4528 515.729 94.5804 515.314 95.6073C514.898 96.6342 514.185 97.5137 513.267 98.1331C512.348 98.7525 511.266 99.0837 510.158 99.0842C509.433 99.116 508.71 98.9995 508.031 98.7419C507.353 98.4843 506.735 98.091 506.214 97.5862C505.693 97.0813 505.28 96.4754 505.002 95.8056C504.723 95.1358 504.584 94.4162 504.593 93.6908ZM514.595 93.6908C514.607 92.8078 514.356 91.941 513.874 91.201C513.392 90.461 512.701 89.8812 511.889 89.5354C511.076 89.1895 510.179 89.0933 509.311 89.259C508.444 89.4247 507.645 89.8448 507.017 90.4658C506.389 91.0868 505.96 91.8806 505.785 92.7462C505.61 93.6118 505.696 94.51 506.033 95.3264C506.37 96.1428 506.942 96.8405 507.676 97.3307C508.411 97.8209 509.275 98.0814 510.158 98.0791C510.742 98.0993 511.324 98 511.868 97.7872C512.412 97.5745 512.907 97.2528 513.323 96.8419C513.738 96.431 514.066 95.9395 514.284 95.3977C514.503 94.8558 514.609 94.275 514.595 93.6908Z" fill="#263238"/>
<path d="M527.086 88.4445V99.0474H526.166L519.351 90.467V99.0474H518.236V88.4445H519.155L525.983 97.0248V88.4445H527.086Z" fill="#263238"/>
<path d="M538.032 98.079V99.0474H530.543V88.4445H537.811V89.4128H531.683V93.1882H537.162V94.1443H531.683V98.079H538.032Z" fill="#263238"/>
<path d="M587.271 128.674C587.271 128.846 498.194 128.993 388.341 128.993C278.488 128.993 189.399 128.846 189.399 128.674C189.399 128.502 278.451 128.355 388.341 128.355C498.231 128.355 587.271 128.502 587.271 128.674Z" fill="#263238"/>
<path d="M312.699 376.733C312.527 376.733 312.38 307.845 312.38 222.887C312.38 137.928 312.527 69.0157 312.699 69.0157C312.87 69.0157 313.018 137.892 313.018 222.887C313.018 307.881 312.87 376.733 312.699 376.733Z" fill="#263238"/>
<path d="M458.688 376.733C458.504 376.733 458.369 307.845 458.369 222.887C458.369 137.928 458.504 69.0157 458.688 69.0157C458.872 69.0157 459.007 137.892 459.007 222.887C459.007 307.881 458.86 376.733 458.688 376.733Z" fill="#263238"/>
<path d="M240.305 140.785C240.305 140.785 237.228 168.842 241.175 184.201L278.659 182.559C278.659 182.559 270.63 154.893 275.558 142.635L240.305 140.785Z" fill="#E0E0E0"/>
<path d="M190.784 156.205C190.784 156.205 187.719 184.263 191.666 199.622L229.138 197.979C229.138 197.979 221.109 170.301 226.049 158.044L190.784 156.205Z" fill="#E0E0E0"/>
<path d="M240.305 140.785C240.305 140.785 240.562 171.073 242.094 180.316L280.093 178.514C280.093 178.514 276.759 148.74 278.046 140.785H240.305Z" fill="#455A64"/>
<path d="M259.01 145.075H259.157H259.562C260.09 145.056 260.62 145.085 261.143 145.161C261.991 145.274 262.817 145.514 263.595 145.872C264.611 146.371 265.51 147.081 266.23 147.955C267.103 149.029 267.723 150.286 268.044 151.633C268.344 153.204 268.208 154.827 267.652 156.327C267.368 157.142 267.011 157.93 266.585 158.681C266.133 159.446 265.724 160.236 265.36 161.047C264.602 162.765 264.086 164.58 263.827 166.44V166.562H263.668H259.917L255.983 166.624H255.835V166.489C255.67 164.631 255.042 162.844 254.009 161.292C253.556 160.519 253.053 159.784 252.587 159.049C252.103 158.346 251.657 157.618 251.251 156.867C250.559 155.431 250.353 153.809 250.663 152.246C250.879 150.895 251.376 149.605 252.121 148.458C252.755 147.538 253.594 146.778 254.573 146.239C255.302 145.827 256.086 145.522 256.902 145.332C257.414 145.212 257.935 145.126 258.459 145.075H258.863H258.459C257.941 145.135 257.429 145.233 256.926 145.369C256.131 145.584 255.365 145.897 254.646 146.301C253.691 146.844 252.874 147.598 252.256 148.507C251.543 149.624 251.067 150.876 250.859 152.184C250.563 153.701 250.774 155.273 251.459 156.658C251.86 157.397 252.302 158.114 252.783 158.803C253.249 159.539 253.752 160.274 254.217 161.059C255.278 162.647 255.923 164.476 256.093 166.379L255.946 166.244L259.881 166.182L263.631 166.121L263.496 166.244C263.759 164.356 264.287 162.516 265.066 160.777C265.427 159.957 265.837 159.159 266.291 158.387C266.706 157.692 267.059 156.962 267.345 156.205C267.897 154.747 268.041 153.166 267.762 151.633C267.458 150.321 266.859 149.097 266.009 148.053C265.323 147.188 264.457 146.481 263.472 145.982C262.721 145.625 261.925 145.374 261.106 145.234C260.588 145.15 260.063 145.109 259.537 145.112H258.986L259.01 145.075Z" fill="white"/>
<path d="M260.959 166.17C260.956 166.129 260.956 166.088 260.959 166.048V165.704C260.959 165.386 260.836 164.932 260.751 164.344C260.579 163.118 260.322 161.463 260.15 159.33C260.15 158.803 260.077 158.24 260.052 157.663C260.027 157.087 260.052 156.438 260.052 155.849C260.076 155.195 260.221 154.55 260.481 153.949C260.77 153.302 261.29 152.786 261.94 152.503C262.284 152.359 262.662 152.32 263.028 152.389C263.394 152.459 263.732 152.635 263.999 152.895C264.14 153.027 264.251 153.187 264.327 153.364C264.403 153.541 264.442 153.732 264.44 153.925C264.434 154.32 264.301 154.702 264.06 155.016C263.818 155.332 263.503 155.584 263.141 155.751C262.783 155.927 262.404 156.055 262.013 156.131C261.206 156.297 260.386 156.391 259.562 156.413C258.743 156.443 257.922 156.402 257.11 156.291C256.712 156.235 256.325 156.124 255.958 155.96C255.599 155.798 255.274 155.569 255.002 155.285C254.737 154.997 254.547 154.648 254.45 154.268C254.371 153.887 254.418 153.491 254.585 153.14C254.745 152.792 255.029 152.517 255.382 152.368C255.552 152.295 255.736 152.258 255.921 152.258C256.107 152.258 256.29 152.295 256.46 152.368C256.784 152.524 257.063 152.76 257.27 153.054C257.464 153.34 257.602 153.66 257.674 153.998C257.791 154.638 257.857 155.285 257.87 155.935C257.931 157.161 257.993 158.387 258.054 159.416C258.152 161.537 258.238 163.265 258.299 164.454C258.299 165.043 258.299 165.508 258.36 165.827C258.422 166.146 258.36 166.097 258.36 166.182V166.305C258.355 166.264 258.355 166.223 258.36 166.182V165.827C258.36 165.508 258.36 165.055 258.275 164.454C258.201 163.228 258.103 161.549 257.98 159.429C257.919 158.362 257.858 157.198 257.784 155.947C257.766 155.302 257.701 154.659 257.588 154.023C257.514 153.699 257.381 153.392 257.196 153.116C257 152.84 256.739 152.617 256.436 152.466C256.118 152.337 255.762 152.337 255.443 152.466C255.115 152.606 254.853 152.864 254.708 153.189C254.547 153.516 254.5 153.887 254.573 154.243C254.662 154.603 254.843 154.933 255.1 155.2C255.648 155.747 256.365 156.092 257.135 156.18C257.927 156.285 258.726 156.322 259.525 156.291C260.324 156.269 261.12 156.179 261.903 156.021C262.284 155.942 262.654 155.819 263.006 155.653C263.346 155.49 263.644 155.251 263.876 154.954C264.103 154.658 264.232 154.298 264.244 153.925C264.241 153.565 264.096 153.221 263.84 152.969C263.583 152.729 263.264 152.567 262.919 152.502C262.573 152.437 262.217 152.471 261.891 152.601C261.269 152.879 260.771 153.377 260.493 153.998C260.232 154.582 260.087 155.21 260.064 155.849C260.064 156.474 260.064 157.075 260.064 157.663C260.064 158.252 260.064 158.791 260.15 159.33C260.309 161.451 260.555 163.155 260.702 164.344C260.787 164.92 260.849 165.386 260.898 165.692V166.048C260.921 166.087 260.941 166.128 260.959 166.17Z" fill="white"/>
<path d="M255.958 166.367C256.011 166.773 256.044 167.182 256.056 167.592C256.056 168.512 256.166 169.615 256.228 170.89V170.804L258.777 173.758H258.643L261.609 173.599L261.474 173.66C261.952 173.072 262.442 172.434 262.957 171.858L263.693 170.963V171.074C263.693 169.345 263.607 167.703 263.57 166.17L263.742 166.318L258.214 166.379H256.62C256.42 166.396 256.219 166.396 256.019 166.379C256.195 166.364 256.371 166.364 256.546 166.379L258.103 166.305L263.668 166.011H263.828V166.17C263.828 167.666 263.926 169.308 263.975 171.074V171.147L263.239 172.042L261.756 173.844H261.682L258.728 173.991H258.643L256.13 171C256.13 169.684 256.13 168.557 256.13 167.617C255.934 166.771 255.946 166.354 255.958 166.367Z" fill="white"/>
<path d="M263.595 170.657L263.313 170.534C263.061 170.417 262.803 170.315 262.54 170.228C261.681 169.935 260.776 169.798 259.868 169.823C258.963 169.847 258.069 170.038 257.233 170.387C256.977 170.492 256.728 170.61 256.485 170.742L256.215 170.877C256.215 170.877 256.301 170.804 256.461 170.706C256.697 170.558 256.942 170.427 257.196 170.313C258.039 169.939 258.946 169.731 259.868 169.7C260.792 169.678 261.711 169.831 262.577 170.154C262.896 170.277 263.153 170.399 263.337 170.485C263.431 170.529 263.518 170.587 263.595 170.657Z" fill="white"/>
<path d="M263.595 169.468C263.595 169.468 263.484 169.468 263.313 169.345C263.141 169.222 262.871 169.161 262.54 169.051C260.813 168.441 258.92 168.498 257.233 169.21L256.485 169.553L256.215 169.688L256.461 169.517C256.697 169.374 256.943 169.247 257.196 169.137C258.037 168.756 258.946 168.548 259.868 168.524C260.787 168.496 261.703 168.646 262.565 168.965C262.827 169.059 263.081 169.174 263.325 169.308L263.595 169.468Z" fill="white"/>
<path d="M263.521 168.34L263.239 168.23C262.992 168.112 262.739 168.01 262.479 167.923C261.487 167.584 260.436 167.455 259.392 167.544C258.347 167.633 257.332 167.937 256.412 168.438L256.142 168.573L256.387 168.389C256.63 168.249 256.879 168.123 257.135 168.009C257.974 167.634 258.877 167.426 259.795 167.396C260.718 167.37 261.637 167.52 262.504 167.837C262.835 167.972 263.092 168.095 263.264 168.181L263.521 168.34Z" fill="white"/>
<path d="M190.502 156.205C190.502 156.205 190.759 186.494 192.292 195.736L230.291 193.934C230.291 193.934 226.895 164.209 228.231 156.205H190.502Z" fill="#FE7F7F"/>
<path d="M222.507 168.977C222.507 169.149 216.819 169.639 209.783 170.056C202.747 170.473 197.023 170.681 197.011 170.51C196.999 170.338 202.698 169.848 209.747 169.419C216.795 168.99 222.495 168.806 222.507 168.977Z" fill="white"/>
<path d="M222.519 175.388C218.299 175.967 214.052 176.331 209.796 176.479C205.548 176.842 201.285 176.989 197.023 176.92C197.023 176.749 202.711 176.259 209.747 175.842C216.782 175.425 222.507 175.217 222.519 175.388Z" fill="white"/>
<path d="M216.059 181.689C213.671 182.149 211.247 182.403 208.815 182.449C206.396 182.7 203.959 182.737 201.534 182.559C203.922 182.099 206.346 181.849 208.778 181.811C211.197 181.56 213.633 181.519 216.059 181.689Z" fill="white"/>
<path d="M261.143 188.994C261.143 188.994 258.078 217.052 262.025 232.411L299.509 230.768C299.509 230.768 291.468 203.091 296.408 190.833L261.143 188.994Z" fill="#EBEBEB"/>
<path d="M261.29 188.075C261.29 188.075 261.547 218.364 263.092 227.606L301.091 225.816C301.091 225.816 297.757 196.042 299.044 188.075H261.29Z" fill="#FE7F7F"/>
<path d="M293.295 200.811C289.075 201.389 284.828 201.753 280.572 201.902C276.328 202.264 272.069 202.411 267.811 202.343C267.811 202.171 273.499 201.681 280.535 201.264C287.571 200.848 293.295 200.639 293.295 200.811Z" fill="white"/>
<path d="M293.307 207.234C293.307 207.405 287.62 207.896 280.584 208.312C273.548 208.729 267.836 208.938 267.823 208.766C272.043 208.187 276.29 207.823 280.547 207.675C284.79 207.313 289.049 207.165 293.307 207.234Z" fill="white"/>
<path d="M286.86 213.534C284.47 213.986 282.047 214.236 279.615 214.282C277.196 214.533 274.76 214.574 272.334 214.405C274.722 213.936 277.146 213.682 279.579 213.645C281.997 213.386 284.434 213.349 286.86 213.534Z" fill="white"/>
<path d="M253.372 306.558C253.372 306.558 250.295 334.616 254.242 349.975L291.726 348.332C291.726 348.332 283.697 320.666 288.625 308.409L253.372 306.558Z" fill="#EBEBEB"/>
<path d="M253.519 305.663C253.519 305.663 253.776 335.952 255.321 345.182L293.319 343.392C293.319 343.392 289.973 313.618 291.26 305.663H253.519Z" fill="#FE7F7F"/>
<path d="M285.524 318.386C285.524 318.558 279.836 319.048 272.8 319.465C265.764 319.882 260.04 320.09 260.028 319.919C264.252 319.341 268.502 318.977 272.763 318.828C277.007 318.465 281.265 318.318 285.524 318.386Z" fill="white"/>
<path d="M285.536 324.797C285.536 324.969 279.848 325.459 272.812 325.888C265.776 326.317 260.052 326.501 260.04 326.329C260.028 326.158 265.727 325.667 272.776 325.25C279.824 324.834 285.524 324.625 285.536 324.797Z" fill="white"/>
<path d="M279.076 331.097C276.688 331.557 274.264 331.807 271.832 331.845C269.413 332.096 266.977 332.137 264.551 331.968C266.939 331.508 269.363 331.253 271.795 331.208C274.214 330.957 276.65 330.92 279.076 331.097Z" fill="white"/>
<path d="M200.676 283.869C200.676 283.869 197.612 311.927 201.559 327.285L239.043 325.643C239.043 325.643 231.014 297.977 235.941 285.72L200.676 283.869Z" fill="#EBEBEB"/>
<path d="M200.835 282.974C200.835 282.974 201.093 313.263 202.625 322.505L240.624 320.703C240.624 320.703 237.29 290.929 238.577 282.974H200.835Z" fill="#FE7F7F"/>
<path d="M232.84 295.697C232.84 295.869 227.153 296.359 220.104 296.776C213.056 297.193 207.356 297.401 207.344 297.23C211.564 296.651 215.811 296.287 220.068 296.139C224.315 295.776 228.578 295.629 232.84 295.697Z" fill="white"/>
<path d="M232.852 302.071C232.852 302.243 227.152 302.733 220.117 303.162C215.873 303.525 211.614 303.672 207.356 303.604C207.356 303.432 213.044 302.942 220.08 302.525C227.116 302.108 232.84 301.936 232.852 302.071Z" fill="white"/>
<path d="M226.393 308.409C224.004 308.869 221.58 309.123 219.148 309.169C216.729 309.42 214.293 309.457 211.867 309.279C214.256 308.819 216.68 308.569 219.112 308.531C221.531 308.28 223.967 308.239 226.393 308.409Z" fill="white"/>
<path d="M396.125 288.048C396.125 288.048 393.06 316.106 397.007 331.465L434.479 329.823C434.479 329.823 426.45 302.157 431.39 289.887L396.125 288.048Z" fill="#EBEBEB"/>
<path d="M396.272 287.154C396.272 287.154 396.529 317.43 398.074 326.673L436.072 324.883C436.072 324.883 432.738 295.109 434.013 287.154H396.272Z" fill="#FE7F7F"/>
<path d="M428.276 299.865C424.056 300.443 419.81 300.808 415.553 300.956C408.517 301.385 402.805 301.581 402.793 301.409C407.013 300.831 411.259 300.467 415.516 300.319C422.552 299.89 428.264 299.693 428.276 299.865Z" fill="white"/>
<path d="M428.289 306.288C428.289 306.46 422.601 306.95 415.565 307.367C408.529 307.783 402.805 307.992 402.793 307.82C402.78 307.649 408.48 307.158 415.529 306.729C419.772 306.367 424.031 306.22 428.289 306.288Z" fill="white"/>
<path d="M421.792 312.588C419.404 313.049 416.98 313.299 414.548 313.336C412.129 313.587 409.693 313.628 407.267 313.459C409.656 312.999 412.079 312.745 414.511 312.699C416.93 312.447 419.367 312.41 421.792 312.588Z" fill="white"/>
<path d="M254.144 218.609C254.144 218.609 250.319 246.581 242.781 260.518L206.805 249.854C206.805 249.854 221.305 224.946 219.479 211.855L254.144 218.609Z" fill="#EBEBEB"/>
<path d="M254.217 217.702C254.217 217.702 246.63 247.022 242.904 255.615L206.474 244.681C206.474 244.681 216.93 216.598 217.604 208.57L254.217 217.702Z" fill="#455A64"/>
<path d="M220.08 222.298C224.222 223.265 228.313 224.439 232.338 225.816C236.434 226.992 240.468 228.374 244.424 229.959C244.424 230.119 238.883 228.55 232.166 226.429C228.07 225.258 224.036 223.879 220.08 222.298Z" fill="white"/>
<path d="M218.511 228.525C218.572 228.366 224.063 229.935 230.768 232.055C237.473 234.176 242.903 236.027 242.854 236.186C242.805 236.345 237.302 234.776 230.597 232.668C223.892 230.56 218.462 228.684 218.511 228.525Z" fill="white"/>
<path d="M223.218 236.198C225.615 236.611 227.97 237.239 230.254 238.074C232.603 238.683 234.892 239.503 237.094 240.525C234.699 240.098 232.345 239.466 230.058 238.638C227.713 238.018 225.426 237.202 223.218 236.198Z" fill="white"/>
<path d="M293.466 248.137C293.466 248.137 296.543 276.195 292.596 291.554L255.088 289.814C255.088 289.814 263.116 262.136 258.189 249.878L293.466 248.137Z" fill="#EBEBEB"/>
<path d="M255.088 241.518C255.088 241.518 252.526 275.129 250.467 281.552L284.604 285.143L289.74 280.24C289.74 280.24 293.074 255.602 292.559 247.647L255.088 241.518Z" fill="#455A64"/>
<path d="M285.401 280.008L284.629 285.144L289.765 280.265L285.401 280.008Z" fill="#263238"/>
<path d="M285.732 259.39C284.448 259.335 283.17 259.188 281.908 258.949L272.714 257.65L263.509 256.497C262.226 256.404 260.952 256.215 259.697 255.933C260.985 255.859 262.277 255.9 263.558 256.056C265.924 256.228 269.209 256.546 272.8 257.024C276.392 257.502 279.652 258.042 281.981 258.495C283.256 258.676 284.512 258.976 285.732 259.39Z" fill="white"/>
<path d="M284.298 266.401C283.071 266.475 281.84 266.434 280.62 266.279C278.34 266.12 275.203 265.813 271.758 265.384C268.314 264.955 265.188 264.453 262.945 264.048C261.723 263.885 260.518 263.618 259.341 263.251C260.575 263.259 261.806 263.378 263.018 263.607L271.832 264.747L280.657 265.838C281.885 265.921 283.102 266.11 284.298 266.401Z" fill="white"/>
<path d="M282.165 272.849C278.32 272.658 274.49 272.249 270.692 271.623C266.861 271.217 263.055 270.599 259.292 269.772C263.14 269.971 266.974 270.38 270.777 270.998C274.603 271.413 278.405 272.031 282.165 272.849Z" fill="white"/>
<path d="M570.221 283.685C570.221 283.685 573.297 311.73 569.35 327.101L531.866 325.459C531.866 325.459 539.895 297.781 534.968 285.523L570.221 283.685Z" fill="#EBEBEB"/>
<path d="M531.866 277.127C531.866 277.127 529.305 310.737 527.245 317.148L561.383 320.74L566.519 315.837C566.519 315.837 569.853 291.186 569.338 283.231L531.866 277.127Z" fill="#455A64"/>
<path d="M562.155 315.616L561.383 320.752L566.519 315.874L562.155 315.616Z" fill="#263238"/>
<path d="M562.535 294.999C561.251 294.943 559.973 294.791 558.711 294.545L549.53 293.258L540.312 292.106C539.031 292.023 537.76 291.83 536.512 291.53C537.796 291.455 539.084 291.496 540.361 291.652C542.739 291.824 546.012 292.143 549.603 292.621C553.195 293.099 556.455 293.65 558.784 294.104C560.06 294.283 561.316 294.583 562.535 294.999Z" fill="white"/>
<path d="M561.052 302.071C559.825 302.145 558.594 302.104 557.375 301.949C555.095 301.777 551.969 301.483 548.512 301.042C545.056 300.6 541.954 300.122 539.699 299.718C538.475 299.562 537.268 299.291 536.095 298.909C537.328 298.932 538.558 299.051 539.773 299.264L548.598 300.417L557.424 301.495C558.648 301.579 559.862 301.772 561.052 302.071Z" fill="white"/>
<path d="M558.919 308.458C551.244 307.861 543.608 306.838 536.046 305.393C539.895 305.584 543.729 305.994 547.532 306.619C551.358 307.022 555.16 307.636 558.919 308.458Z" fill="white"/>
<path d="M525.394 140.723C525.394 140.723 528.459 168.769 524.512 184.128L487.028 182.498C487.028 182.498 495.056 154.82 490.129 142.562L525.394 140.723Z" fill="#EBEBEB"/>
<path d="M487.028 134.141C487.028 134.141 484.466 167.764 482.419 174.175L516.544 177.766L521.68 172.863C521.68 172.863 525.014 148.225 524.512 140.27L487.028 134.141Z" fill="#455A64"/>
<path d="M517.317 172.643L516.557 177.779L521.68 172.9L517.317 172.643Z" fill="#263238"/>
<path d="M517.709 152.025C516.42 151.986 515.136 151.839 513.872 151.584L504.691 150.358L495.485 149.206C494.201 149.115 492.927 148.923 491.673 148.63C492.957 148.555 494.245 148.596 495.522 148.752C497.9 148.924 501.173 149.242 504.777 149.72C508.381 150.199 511.617 150.75 513.958 151.204C515.228 151.375 516.483 151.649 517.709 152.025Z" fill="white"/>
<path d="M516.176 159.037C514.95 159.112 513.719 159.075 512.499 158.926C510.231 158.755 507.093 158.448 503.637 158.019C500.18 157.59 497.079 157.1 494.836 156.695C493.611 156.542 492.405 156.271 491.232 155.886C492.465 155.909 493.695 156.028 494.909 156.242L503.735 157.382L512.56 158.473C513.779 158.566 514.988 158.754 516.176 159.037Z" fill="white"/>
<path d="M514.08 165.496C510.236 165.301 506.406 164.891 502.607 164.27C498.779 163.87 494.977 163.252 491.22 162.42C495.063 162.622 498.893 163.032 502.693 163.645C506.52 164.053 510.321 164.671 514.08 165.496Z" fill="white"/>
<path d="M381.133 152.944C381.133 152.944 384.198 181.002 380.251 196.361L342.767 194.718C342.767 194.718 350.796 167.041 345.868 154.783L381.133 152.944Z" fill="#EBEBEB"/>
<path d="M342.767 146.399C342.767 146.399 340.205 180.009 338.158 186.42L372.283 190.024L377.419 185.121C377.419 185.121 380.766 160.483 380.251 152.515L342.767 146.399Z" fill="#455A64"/>
<path d="M373.056 184.876L372.296 190.012L377.42 185.133L373.056 184.876Z" fill="#263238"/>
<path d="M373.448 164.258C372.16 164.204 370.878 164.057 369.611 163.817L360.43 162.518L351.225 161.365C349.942 161.275 348.667 161.086 347.413 160.802C348.697 160.719 349.985 160.76 351.261 160.924C353.639 161.096 356.912 161.414 360.516 161.892C364.12 162.371 367.356 162.91 369.697 163.363C370.972 163.547 372.228 163.846 373.448 164.258Z" fill="white"/>
<path d="M371.952 171.27C370.726 171.344 369.494 171.303 368.275 171.147C366.007 170.988 362.87 170.681 359.413 170.24C355.956 169.799 352.855 169.321 350.612 168.916C349.387 168.762 348.181 168.492 347.008 168.107C348.242 168.131 349.471 168.254 350.685 168.475L359.511 169.615L368.336 170.694C369.556 170.778 370.767 170.971 371.952 171.27Z" fill="white"/>
<path d="M369.82 177.717C365.975 177.526 362.145 177.116 358.346 176.491C354.519 176.084 350.718 175.466 346.959 174.64C350.803 174.839 354.633 175.248 358.432 175.866C362.259 176.274 366.061 176.891 369.82 177.717Z" fill="white"/>
<path d="M330.828 208.349L333.782 276.943L419.402 277.973L415.565 209.256L330.828 208.349Z" fill="#EBEBEB"/>
<path d="M414.891 207.859H329.835V272.089H414.891V207.859Z" fill="white"/>
<path d="M414.891 272.077C414.891 272.077 414.891 271.672 414.891 270.851C414.891 270.03 414.891 268.914 414.891 267.419C414.891 264.404 414.891 260.064 414.83 254.426C414.83 243.222 414.744 227.201 414.695 207.847L414.953 208.104L329.86 208.177L330.178 207.859C330.178 230.952 330.178 252.82 330.178 272.077L329.884 271.795L391.173 271.942L408.615 272.016H413.261H414.879C414.753 272.027 414.625 272.027 414.499 272.016H413.273H408.689L391.307 272.089L329.774 272.236H329.492V271.942C329.492 252.685 329.492 230.817 329.492 207.724V207.405H329.86H414.904H415.161V207.675C415.161 227.128 415.063 243.222 415.026 254.438C415.026 260.015 415.026 264.379 414.965 267.382C414.965 268.837 414.965 269.964 414.965 270.765C414.916 271.709 414.891 272.077 414.891 272.077Z" fill="#263238"/>
<path d="M374.576 221.465H340.095V264.857H374.576V221.465Z" fill="white"/>
<path d="M374.576 264.857C374.572 264.783 374.572 264.71 374.576 264.636C374.576 264.465 374.576 264.269 374.576 264.011C374.576 263.435 374.576 262.651 374.576 261.645C374.576 259.537 374.576 256.534 374.49 252.734C374.49 245.098 374.404 234.286 374.355 221.465L374.637 221.747H340.156L340.475 221.428V233.232C340.475 237.081 340.475 240.844 340.475 244.485C340.475 251.778 340.475 258.606 340.475 264.808L340.205 264.538L365.162 264.685H372.173H374.024C374.244 264.668 374.466 264.668 374.686 264.685C374.486 264.705 374.285 264.705 374.085 264.685H372.271L365.333 264.747L340.205 264.894H339.948V264.624C339.948 258.422 339.948 251.594 339.948 244.301C339.948 240.624 339.948 236.946 339.948 233.048V221.244L340.266 220.925H374.747H375.029V221.207C375.029 234.115 374.931 244.975 374.894 252.661C374.894 256.436 374.833 259.415 374.809 261.511C374.809 262.491 374.809 263.263 374.809 263.827C374.762 264.177 374.684 264.521 374.576 264.857Z" fill="#263238"/>
<path d="M407.5 211.536H341.419V217.787H407.5V211.536Z" fill="white"/>
<path d="M407.5 217.788C407.483 217.645 407.483 217.501 407.5 217.359C407.5 217.056 407.5 216.648 407.5 216.133C407.5 215.042 407.5 213.497 407.426 211.524L407.561 211.646C396.407 211.757 371.009 211.843 341.48 211.843L341.799 211.524V217.751L341.48 217.432L388.304 217.567L402.364 217.665H406.2H407.206H407.561H407.242H406.286H402.523L388.537 217.763L341.48 217.898H341.161V211.352C341.296 211.205 340.842 211.671 341.48 211.034C371.009 211.034 396.407 211.107 407.561 211.217H407.684V211.352C407.684 213.363 407.684 214.919 407.61 216.035V217.26C407.512 217.665 407.5 217.8 407.5 217.788Z" fill="#263238"/>
<path d="M407.488 221.465H378.792V247.623H407.488V221.465Z" fill="white"/>
<path d="M407.5 247.611C407.484 247.443 407.484 247.275 407.5 247.108C407.5 246.74 407.5 246.275 407.5 245.686C407.5 244.399 407.5 242.609 407.427 240.354C407.427 235.745 407.341 229.249 407.279 221.465L407.561 221.735H378.866C378.793 221.796 379.467 221.134 379.173 221.416V235.157C379.173 239.545 379.173 243.737 379.173 247.537L378.891 247.267L399.594 247.402L405.465 247.476H407.034H407.598C407.431 247.493 407.263 247.493 407.096 247.476H405.576L399.765 247.549L378.927 247.684H378.658V247.402C378.658 243.566 378.658 239.41 378.658 235.022V228.525C378.658 227.373 378.658 226.209 378.658 225.044V221.526C378.376 221.808 379.05 221.134 378.989 221.208H407.684H407.954V221.477C407.892 229.334 407.843 235.892 407.807 240.538C407.807 242.769 407.807 244.534 407.745 245.809C407.745 246.373 407.745 246.826 407.745 247.182C407.745 247.537 407.5 247.623 407.5 247.611Z" fill="#263238"/>
<path d="M407.488 251.717H378.792V264.857H407.488V251.717Z" fill="white"/>
<path d="M407.5 264.857C407.472 264.539 407.472 264.219 407.5 263.901C407.5 263.227 407.5 262.356 407.439 261.253C407.439 258.937 407.365 255.688 407.316 251.717L407.549 251.95L378.854 252.035C378.559 252.317 379.234 251.643 379.16 251.717V258.471C379.16 260.665 379.16 262.798 379.16 264.832L378.854 264.526L399.373 264.673L405.355 264.759H406.973H407.561C407.39 264.776 407.218 264.776 407.046 264.759H405.49L399.581 264.845L378.854 264.992H378.56V264.685C378.56 262.651 378.56 260.518 378.56 258.324C378.56 257.22 378.56 256.105 378.56 254.977V251.57C378.498 251.643 379.172 250.969 378.89 251.251L407.586 251.337H407.819V251.57C407.819 255.602 407.721 258.924 407.684 261.253C407.684 262.32 407.684 263.19 407.684 263.84C407.643 264.182 407.582 264.522 407.5 264.857Z" fill="#263238"/>
<path d="M373.718 221.538C363.053 236.248 350.771 250.111 340.095 264.857L373.718 221.538Z" fill="white"/>
<path d="M340.095 264.857C340.452 264.219 340.862 263.612 341.32 263.043C342.105 261.903 343.282 260.273 344.765 258.275C347.719 254.291 351.96 248.897 356.704 243.002C361.448 237.106 365.75 231.749 368.79 227.839L372.394 223.205C372.809 222.616 373.268 222.059 373.767 221.538C373.427 222.173 373.038 222.78 372.602 223.352C371.805 224.492 370.629 226.123 369.158 228.121C366.191 232.104 361.95 237.498 357.206 243.394C352.463 249.29 348.173 254.634 345.12 258.557L341.517 263.19C341.091 263.785 340.615 264.342 340.095 264.857Z" fill="#263238"/>
<path d="M374.576 264.857C374.441 264.967 366.608 255.345 357.084 243.357C347.56 231.369 339.923 221.575 340.095 221.465C340.266 221.354 348.062 230.977 357.587 242.965C367.111 254.953 374.711 264.746 374.576 264.857Z" fill="#263238"/>
<path d="M328.389 226.944C331.367 226.944 333.782 224.529 333.782 221.551C333.782 218.572 331.367 216.157 328.389 216.157C325.41 216.157 322.995 218.572 322.995 221.551C322.995 224.529 325.41 226.944 328.389 226.944Z" fill="#FE7F7F"/>
<path d="M328.389 226.981C327.314 226.983 326.263 226.667 325.368 226.072C324.474 225.476 323.776 224.629 323.363 223.637C322.95 222.645 322.841 221.553 323.049 220.499C323.257 219.445 323.773 218.476 324.532 217.715C325.291 216.955 326.259 216.436 327.312 216.226C328.366 216.015 329.459 216.122 330.452 216.533C331.444 216.943 332.293 217.639 332.89 218.533C333.488 219.426 333.806 220.476 333.806 221.551C333.803 222.988 333.232 224.365 332.217 225.382C331.202 226.4 329.826 226.974 328.389 226.981ZM328.389 216.194C327.326 216.192 326.286 216.505 325.401 217.094C324.516 217.683 323.826 218.521 323.418 219.503C323.011 220.484 322.903 221.565 323.11 222.607C323.317 223.65 323.828 224.608 324.58 225.359C325.332 226.111 326.289 226.622 327.332 226.829C328.375 227.036 329.455 226.929 330.437 226.521C331.418 226.113 332.256 225.423 332.845 224.538C333.434 223.653 333.748 222.614 333.745 221.551C333.742 220.131 333.177 218.77 332.173 217.767C331.169 216.763 329.808 216.197 328.389 216.194Z" fill="#263238"/>
<path d="M416.607 213.853C419.586 213.853 422.001 211.438 422.001 208.459C422.001 205.481 419.586 203.066 416.607 203.066C413.629 203.066 411.214 205.481 411.214 208.459C411.214 211.438 413.629 213.853 416.607 213.853Z" fill="#FE7F7F"/>
<path d="M416.607 213.89C415.533 213.89 414.483 213.571 413.59 212.974C412.697 212.378 412.001 211.53 411.59 210.537C411.179 209.545 411.072 208.453 411.281 207.4C411.491 206.347 412.008 205.379 412.768 204.62C413.527 203.86 414.495 203.343 415.548 203.134C416.601 202.924 417.693 203.032 418.685 203.443C419.678 203.854 420.526 204.55 421.122 205.443C421.719 206.336 422.037 207.385 422.037 208.459C422.037 209.9 421.465 211.281 420.447 212.299C419.429 213.318 418.047 213.89 416.607 213.89ZM416.607 203.103C415.545 203.103 414.506 203.418 413.623 204.009C412.74 204.599 412.052 205.438 411.646 206.42C411.24 207.402 411.134 208.482 411.343 209.524C411.551 210.565 412.063 211.522 412.815 212.272C413.567 213.023 414.525 213.533 415.567 213.739C416.61 213.945 417.69 213.837 418.67 213.428C419.651 213.02 420.489 212.33 421.077 211.446C421.666 210.561 421.979 209.522 421.976 208.459C421.976 207.755 421.837 207.057 421.567 206.407C421.297 205.756 420.902 205.165 420.403 204.667C419.904 204.17 419.312 203.776 418.661 203.507C418.01 203.239 417.312 203.101 416.607 203.103Z" fill="#263238"/>
<path d="M446.626 183.294L421.228 196.361L408.958 194.621L415.529 182.976L442.312 173.537L446.626 183.294Z" fill="#EBEBEB"/>
<path d="M407.904 192.218L414.119 182.204L441.637 172.214L447.166 183.086L420.493 193.738L407.904 192.218Z" fill="#455A64"/>
<path d="M438.536 178.673C437.69 179.164 436.799 179.575 435.876 179.899C434.197 180.573 431.88 181.492 429.306 182.473L422.699 184.925C421.02 185.537 419.917 185.905 419.978 185.868C419.77 185.611 423.95 183.821 429.073 181.86C434.197 179.899 438.475 178.477 438.536 178.673Z" fill="white"/>
<path d="M434.246 183.601C432.408 184.798 430.416 185.743 428.326 186.408C426.307 187.278 424.179 187.868 422.001 188.161C426.049 186.541 430.136 185.021 434.258 183.601H434.246Z" fill="white"/>
<path d="M483.926 193.284L493.218 242.352L585.984 224.787L569.865 177.006L483.926 193.284Z" fill="#EBEBEB"/>
<path d="M569.861 177.005L481.99 193.64L490.221 237.118L578.092 220.483L569.861 177.005Z" fill="white"/>
<path d="M578.09 220.484L577.919 219.7C577.808 219.16 577.661 218.4 577.465 217.432C577.073 215.422 576.497 212.529 575.761 208.753C574.315 201.24 572.219 190.367 569.632 177.055L569.914 177.239L482.063 193.958L482.321 193.578C485.201 208.913 487.984 223.622 490.521 237.106L490.166 236.86L553.268 225.068L571.495 221.698L576.399 220.803L577.624 220.582L578.066 220.521L577.673 220.619L576.448 220.864L571.643 221.82L553.513 225.338L490.264 237.449L489.97 237.51V237.216L481.72 193.738L481.659 193.431L481.978 193.37L569.853 176.81H570.086V177.043C572.537 190.465 574.597 201.362 575.994 208.913C576.668 212.651 577.22 215.556 577.575 217.555C577.747 218.523 577.869 219.271 577.968 219.798C578.066 220.325 578.09 220.484 578.09 220.484Z" fill="#263238"/>
<path d="M516.849 196.978L492.556 201.577L497.155 225.869L521.447 221.27L516.849 196.978Z" fill="white"/>
<path d="M521.447 221.269C521.395 221.117 521.354 220.961 521.325 220.803C521.251 220.46 521.165 220.018 521.043 219.479C520.798 218.253 520.467 216.611 520.038 214.576L516.581 197.084L516.9 197.305L492.617 201.938C492.617 202.024 493.095 201.24 492.875 201.571V201.644V201.754V201.963L492.948 202.38L493.108 203.201C493.218 203.752 493.316 204.304 493.426 204.856C493.622 205.947 493.831 207.025 494.039 208.104C494.431 210.237 494.836 212.345 495.265 214.38C496.025 218.462 496.748 222.311 497.398 225.841L497.079 225.632L514.632 222.445L519.609 221.575L520.945 221.355H521.423C521.294 221.411 521.158 221.448 521.018 221.465L519.793 221.747L514.889 222.74L497.214 226.233H496.944V225.963C496.27 222.433 495.522 218.609 494.75 214.502C494.358 212.468 493.949 210.376 493.524 208.227C493.316 207.16 493.107 206.069 492.911 204.978C492.801 204.439 492.703 203.887 492.593 203.336L492.433 202.502L492.36 202.085V201.877V201.779V201.693L492.617 201.313L516.802 196.655H517.071V196.925C518.395 204.218 519.523 210.31 520.283 214.65C520.651 216.721 520.932 218.327 521.141 219.553C521.227 220.067 521.3 220.496 521.349 220.778C521.408 220.936 521.441 221.101 521.447 221.269Z" fill="#263238"/>
<path d="M521.447 221.269C521.447 221.269 521.312 220.644 520.969 219.541C520.519 217.962 519.626 216.545 518.395 215.459C517.523 214.66 516.503 214.039 515.392 213.632C514.083 213.174 512.688 213.015 511.31 213.167H510.734L511.041 212.676C511.555 211.802 511.845 210.813 511.884 209.799C511.922 208.785 511.708 207.777 511.261 206.866C510.815 205.848 510.066 204.992 509.116 204.415C508.122 203.838 506.978 203.569 505.831 203.642C504.536 203.697 503.291 204.16 502.276 204.966C501.313 205.734 500.645 206.813 500.389 208.018C500.145 209.114 500.202 210.255 500.554 211.321C500.905 212.387 501.539 213.338 502.387 214.074L502.693 214.319L502.362 214.527C500.847 215.425 499.583 216.69 498.685 218.204C497.989 219.38 497.512 220.671 497.275 222.017C497.109 223.202 497.076 224.403 497.177 225.596C497.067 225.3 496.997 224.991 496.969 224.676C496.843 223.782 496.843 222.874 496.969 221.98C497.153 220.574 497.607 219.218 498.305 217.984C499.197 216.358 500.493 214.99 502.068 214.012V214.454C501.121 213.666 500.41 212.632 500.012 211.467C499.615 210.301 499.545 209.049 499.812 207.847C500.082 206.497 500.82 205.285 501.896 204.427C503.011 203.536 504.38 203.021 505.806 202.956C507.091 202.862 508.373 203.162 509.484 203.814C510.528 204.454 511.359 205.388 511.874 206.498C512.355 207.505 512.579 208.615 512.526 209.73C512.473 210.845 512.143 211.929 511.568 212.885L511.273 212.59C512.735 212.449 514.209 212.637 515.588 213.142C516.747 213.591 517.806 214.266 518.702 215.128C519.981 216.28 520.872 217.8 521.251 219.479C521.366 219.914 521.451 220.357 521.509 220.803C521.46 221.171 521.472 221.269 521.447 221.269Z" fill="#263238"/>
<path d="M526.117 196.128L547.188 192.132L526.117 196.128Z" fill="white"/>
<path d="M547.188 192.132C543.746 193.12 540.246 193.894 536.708 194.449C533.214 195.219 529.678 195.78 526.117 196.128C529.562 195.149 533.061 194.376 536.598 193.811C540.093 193.048 543.629 192.487 547.188 192.132Z" fill="#263238"/>
<path d="M527.049 201.019L531.302 200.21L527.049 201.019Z" fill="white"/>
<path d="M531.302 200.21C531.302 200.381 530.408 200.712 529.231 200.933C528.054 201.154 527.086 201.191 527.049 201.019C527.012 200.847 527.944 200.529 529.121 200.308C530.297 200.087 531.266 200.038 531.302 200.21Z" fill="#263238"/>
<path d="M566.323 202.404C566.323 202.576 557.951 204.316 547.556 206.278C537.162 208.239 528.692 209.71 528.655 209.526C528.618 209.342 537.015 207.687 547.434 205.652C557.853 203.618 566.286 202.233 566.323 202.404Z" fill="#263238"/>
<path d="M567.34 206.621C567.34 206.792 558.919 208.533 548.463 210.519C538.007 212.504 529.501 213.963 529.464 213.792C529.427 213.62 537.885 211.867 548.341 209.894C558.797 207.92 567.303 206.461 567.34 206.621Z" fill="#263238"/>
<path d="M567.659 211.634C567.191 211.813 566.706 211.945 566.212 212.027L562.241 212.885C558.882 213.583 554.237 214.503 549.101 215.471C543.965 216.439 539.295 217.285 535.911 217.923L531.903 218.572C531.416 218.678 530.919 218.731 530.42 218.732C530.88 218.54 531.362 218.404 531.854 218.327L535.789 217.494C539.147 216.795 543.793 215.876 548.941 214.907C554.09 213.939 558.747 213.081 562.118 212.456L566.127 211.794C566.629 211.679 567.144 211.626 567.659 211.634Z" fill="#263238"/>
<path d="M529.329 191.348C529.629 191.161 529.94 190.993 530.26 190.845C531.185 190.409 532.135 190.028 533.104 189.705C536.703 188.555 540.509 188.199 544.259 188.663C546.856 188.961 549.387 189.686 551.748 190.808C553.081 191.459 554.259 192.387 555.205 193.53C555.719 194.155 556.081 194.891 556.264 195.68C556.447 196.469 556.445 197.289 556.259 198.077C555.751 199.68 554.736 201.074 553.366 202.049C552.006 203.061 550.544 203.928 549.002 204.635C545.823 206.208 542.452 207.362 538.976 208.067C535.478 208.805 531.861 208.754 528.385 207.92C526.722 207.534 525.132 206.88 523.678 205.983C522.241 205.134 521.115 203.845 520.467 202.306C520.205 201.542 520.116 200.729 520.205 199.926C520.294 199.123 520.559 198.349 520.981 197.661C521.761 196.406 522.777 195.316 523.972 194.449C526.086 192.93 528.39 191.693 530.824 190.772C534.348 189.437 538.089 188.772 541.856 188.81C542.873 188.832 543.888 188.91 544.896 189.043C545.252 189.08 545.605 189.146 545.95 189.239C545.594 189.249 545.237 189.229 544.884 189.178C544.197 189.178 543.168 189.056 541.856 189.068C538.129 189.112 534.44 189.835 530.971 191.201C528.592 192.127 526.346 193.363 524.291 194.878C523.16 195.714 522.199 196.758 521.459 197.955C521.084 198.574 520.85 199.268 520.771 199.988C520.693 200.708 520.773 201.437 521.006 202.122C521.611 203.55 522.66 204.745 523.997 205.53C525.395 206.387 526.922 207.012 528.52 207.381C531.915 208.17 535.441 208.212 538.853 207.503C542.273 206.807 545.589 205.674 548.721 204.133C550.22 203.467 551.646 202.645 552.974 201.681C554.256 200.788 555.204 199.494 555.671 198.004C555.844 197.303 555.852 196.571 555.692 195.866C555.532 195.162 555.21 194.504 554.751 193.946C553.86 192.863 552.749 191.982 551.491 191.36C549.174 190.24 546.69 189.503 544.136 189.178C540.441 188.679 536.682 188.963 533.104 190.012C531.878 190.404 530.886 190.759 530.248 191.029C529.952 191.164 529.645 191.27 529.329 191.348Z" fill="#FE7F7F"/>
<path d="M554.531 190.71C556.462 188.73 558.544 186.902 560.758 185.243C562.838 183.415 565.055 181.747 567.389 180.254C565.456 182.237 563.374 184.069 561.162 185.734C559.083 187.561 556.866 189.225 554.531 190.71Z" fill="#FE7F7F"/>
<path d="M562.412 189.656C560.015 190.463 557.555 191.07 555.058 191.47L554.188 191.654L553.697 191.752L553.808 191.274C554.233 189.06 555.141 186.968 556.468 185.145C556.627 185.219 555.242 187.781 554.421 191.372L554.053 190.98L554.935 190.796C557.39 190.202 559.892 189.82 562.412 189.656Z" fill="#FE7F7F"/>
<path d="M549.272 194.964C545.46 195.871 541.601 196.571 537.713 197.06C533.852 197.756 529.957 198.247 526.044 198.531C529.86 197.623 533.723 196.923 537.615 196.435C541.471 195.731 545.363 195.24 549.272 194.964Z" fill="#FE7F7F"/>
<path d="M522.967 185.623C523.167 186.671 523.051 187.755 522.635 188.738C522.218 189.72 521.52 190.557 520.628 191.142C519.735 191.727 518.69 192.035 517.623 192.026C516.556 192.016 515.516 191.691 514.634 191.09C513.752 190.49 513.068 189.641 512.668 188.652C512.269 187.662 512.172 186.577 512.389 185.532C512.607 184.488 513.129 183.531 513.891 182.784C514.652 182.036 515.618 181.531 516.667 181.333C518.071 181.067 519.523 181.37 520.705 182.174C521.886 182.979 522.7 184.219 522.967 185.623Z" fill="#FE7F7F"/>
<path d="M517.66 192.058C516.264 192.061 514.921 191.526 513.909 190.564C512.897 189.603 512.295 188.288 512.226 186.894C512.158 185.5 512.629 184.133 513.542 183.077C514.455 182.021 515.739 181.357 517.129 181.223C518.518 181.089 519.906 181.496 521.004 182.358C522.102 183.22 522.825 184.472 523.024 185.853C523.224 187.235 522.883 188.64 522.074 189.777C521.264 190.914 520.048 191.696 518.677 191.96C518.342 192.023 518.001 192.056 517.66 192.058ZM517.66 181.259C517.323 181.262 516.986 181.295 516.655 181.357C515.611 181.553 514.648 182.054 513.889 182.797C513.129 183.54 512.607 184.491 512.389 185.531C512.171 186.571 512.266 187.652 512.662 188.637C513.058 189.623 513.738 190.469 514.615 191.068C515.493 191.667 516.528 191.993 517.59 192.003C518.652 192.014 519.694 191.709 520.583 191.127C521.472 190.546 522.168 189.713 522.584 188.736C523 187.758 523.116 186.679 522.918 185.635C522.685 184.409 522.033 183.302 521.074 182.504C520.115 181.706 518.908 181.266 517.66 181.259Z" fill="#263238"/>
<path d="M164.099 57.0523L602.9 69.0159L603.169 55.9369L164.099 57.0523Z" fill="#E0E0E0"/>
<path d="M612.571 47.2954H159.649V57.0525H612.571V47.2954Z" fill="#455A64"/>
<path d="M627.231 174.591C629.268 173.185 631.667 172.398 634.141 172.324C636.615 172.25 639.057 172.894 641.174 174.176C643.29 175.458 644.991 177.325 646.071 179.552C647.151 181.779 647.564 184.27 647.26 186.727C646.942 189.276 645.863 191.838 646.525 194.314C647.751 198.972 654.308 200.786 655.105 205.518C655.251 207.411 654.971 209.312 654.284 211.083C653.781 212.909 653.463 214.981 654.406 216.623C655.262 217.736 656.26 218.734 657.373 219.589C660.56 222.776 660.511 228.378 657.826 232.019C656.399 233.775 654.574 235.166 652.502 236.076C650.43 236.986 648.171 237.39 645.912 237.253C641.385 236.924 637.02 235.433 633.237 232.926" fill="#263238"/>
<path d="M630.394 177.509C629.649 175.37 628.367 173.457 626.671 171.955C624.976 170.453 622.923 169.411 620.71 168.928C616.31 167.862 610.904 166.477 606.81 168.487C604.186 169.623 602.073 171.688 600.877 174.285C599.651 177.435 601.502 183.307 602.409 186.543C603.316 189.779 603.991 193.468 602.201 196.349C600.411 199.229 596.942 200.198 594.748 202.613C593.297 204.356 592.579 206.595 592.749 208.858C592.918 211.12 593.96 213.228 595.655 214.735C591.757 214.503 588.472 218.474 588.607 222.384C588.742 226.294 591.598 229.739 595.079 231.467C598.658 233.069 602.563 233.803 606.479 233.612C611.323 233.624 616.155 233.123 620.894 232.117C624.792 231.296 628.861 229.984 631.399 226.907C633.74 224.076 634.377 220.215 634.39 216.55C634.39 203.581 627.599 190.723 630.553 178.085" fill="#263238"/>
<path d="M610.818 315.984C610.818 315.984 585.457 398.282 587.063 424.869C588.668 451.456 607.974 517.586 607.974 517.586L610.818 315.984Z" fill="#EB996E"/>
<path d="M646.623 301.961C647.187 301.814 658.317 318.153 658.684 332.201C658.716 333.58 658.663 334.959 658.525 336.332C658.051 341.247 656.875 346.068 655.032 350.649C645.63 374.392 635.934 402.584 635.775 408.971C635.272 428.73 626.729 517.464 626.729 517.464L607.974 517.954L602.36 409.51L611.652 301.066L646.623 301.961Z" fill="#FFBE9D"/>
<path d="M502.227 244.534C504.152 242.523 512.879 250.099 513.664 250.662C514.448 251.226 515.318 250.123 514.583 249.633C513.529 248.934 502.558 241.236 504.421 239.251C505.451 238.147 507.265 240.194 507.265 240.194C507.265 240.194 516.985 248.137 517.831 247.181C518.677 246.225 513.136 241.334 511.151 239.827C509.165 238.319 509.091 236.799 510.477 236.48C511.42 236.26 517.623 240.721 519.547 242.266C521.472 243.81 526.706 248.101 525.86 243.884C525.014 239.667 525.946 236.113 526.877 235.304C527.809 234.495 529.231 235.524 528.924 236.824C528.722 238.263 528.722 239.723 528.924 241.163C529.052 242.324 529.376 243.455 529.88 244.509C530.469 245.735 531.02 246.752 531.511 247.598C537.345 251.128 554.151 260.456 571.275 262.442C574.364 262.798 586.327 244.056 586.327 244.056L604.971 259.218C604.971 259.218 605.118 260.444 591.696 276.98C573.444 299.522 520.295 261.045 520.295 261.045V260.983C516.04 259.167 511.887 257.121 507.853 254.855C502.399 251.496 502.693 250.993 503.196 250.43C504.532 248.91 513.002 255.982 512.07 253.408C511.138 250.834 500.768 246.066 502.227 244.534Z" fill="#FFBE9D"/>
<path d="M487.383 231.063C487.383 231.063 484.307 259.108 488.254 274.467L525.738 272.837C525.738 272.837 517.709 245.159 522.636 232.901L487.383 231.063Z" fill="#EBEBEB"/>
<path d="M487.53 230.156C487.53 230.156 487.788 260.444 489.32 269.687L527.319 267.885C527.319 267.885 523.985 238.111 525.272 230.156H487.53Z" fill="#FE7F7F"/>
<path d="M519.535 242.879C515.315 243.457 511.068 243.822 506.812 243.97C502.564 244.332 498.301 244.48 494.039 244.411C494.039 244.24 499.727 243.749 506.763 243.333C513.799 242.916 519.523 242.707 519.535 242.879Z" fill="white"/>
<path d="M519.547 249.363C519.547 249.535 513.86 250.025 506.812 250.442C499.763 250.859 494.064 251.067 494.051 250.895C498.271 250.317 502.518 249.953 506.775 249.805C511.022 249.442 515.285 249.295 519.547 249.363Z" fill="white"/>
<path d="M513.088 255.59C510.7 256.058 508.276 256.312 505.843 256.35C503.424 256.601 500.988 256.642 498.562 256.473C500.95 256.005 503.374 255.751 505.806 255.713C508.225 255.462 510.662 255.421 513.088 255.59Z" fill="white"/>
<path d="M665.598 394.335C665.598 394.335 669.275 315.69 657.949 308.825C646.623 301.961 594.295 313.018 594.295 313.018C594.295 313.018 578.004 387.262 578.691 387.875C584.109 392.582 665.598 394.335 665.598 394.335Z" fill="#FE7F7F"/>
<path d="M665.904 387.458C662.758 387.611 659.605 387.558 656.466 387.299C653.317 387.246 650.176 386.976 647.064 386.49C650.211 386.338 653.364 386.395 656.502 386.662C659.651 386.714 662.792 386.98 665.904 387.458Z" fill="#263238"/>
<path d="M660.131 394.311C659.881 393.25 659.831 392.153 659.984 391.074C659.943 389.987 660.109 388.901 660.474 387.875C660.738 388.933 660.788 390.034 660.621 391.111C660.675 392.2 660.508 393.288 660.131 394.311Z" fill="#263238"/>
<path d="M650.496 394.323C650.09 393.14 649.887 391.896 649.896 390.646C649.679 389.429 649.679 388.184 649.896 386.968C650.301 388.151 650.505 389.395 650.496 390.646C650.712 391.862 650.712 393.107 650.496 394.323Z" fill="#263238"/>
<path d="M607.57 519.743V517.292L626.925 516.924V524.475L625.699 524.561C620.379 524.855 598.622 525.701 595.055 524.634C591.181 523.445 607.57 519.743 607.57 519.743Z" fill="#FE7F7F"/>
<g opacity="0.6">
<path opacity="0.6" d="M620.011 524.585C620.294 522.961 621.167 521.498 622.463 520.479C623.739 519.465 625.347 518.962 626.974 519.069V524.463L620.011 524.585Z" fill="white"/>
</g>
<g opacity="0.6">
<path opacity="0.6" d="M599.59 521.815C599.59 521.815 593.841 523.482 594.564 524.426C595.288 525.37 617.302 525.345 627.01 524.426V523.997L601.331 524.254C601.331 524.254 600.754 521.864 599.59 521.815Z" fill="white"/>
</g>
<path d="M627.121 523.935H626.79L625.834 523.997L622.328 524.144C619.374 524.254 615.28 524.352 610.757 524.365C606.234 524.377 602.176 524.291 599.186 524.193L595.68 524.058L594.724 523.997C594.614 524.013 594.503 524.013 594.393 523.997H595.68L599.186 524.07C602.152 524.07 606.234 524.181 610.757 524.168C615.28 524.156 619.337 524.083 622.328 524.021L625.834 523.935H626.79C626.9 523.923 627.011 523.923 627.121 523.935Z" fill="#263238"/>
<path d="M601.294 524.671C601.14 524.093 600.922 523.534 600.644 523.004C600.29 522.508 599.879 522.056 599.418 521.656C600.017 521.882 600.513 522.317 600.816 522.882C601.194 523.397 601.365 524.036 601.294 524.671Z" fill="#263238"/>
<path d="M607.349 521.325C607.349 521.325 607.031 521.03 606.749 520.589C606.545 520.334 606.403 520.037 606.332 519.719C606.332 519.719 606.663 520.025 606.945 520.467C607.227 520.908 607.41 521.288 607.349 521.325Z" fill="#263238"/>
<path d="M608.918 520.504C608.918 520.504 608.563 520.344 608.232 520.05C607.901 519.756 607.668 519.474 607.705 519.425C607.741 519.376 608.06 519.572 608.391 519.878C608.722 520.185 608.955 520.455 608.918 520.504Z" fill="#263238"/>
<path d="M609.899 518.677C609.577 518.792 609.234 518.838 608.894 518.812C608.551 518.847 608.204 518.81 607.876 518.702C608.202 518.585 608.55 518.543 608.894 518.579C609.232 518.536 609.575 518.57 609.899 518.677Z" fill="#263238"/>
<path d="M610.23 517.39C609.902 517.615 609.512 517.731 609.114 517.721C608.7 517.802 608.272 517.75 607.888 517.574C608.264 517.504 608.646 517.476 609.028 517.488C609.425 517.417 609.827 517.385 610.23 517.39Z" fill="#263238"/>
<path d="M606.7 519.645C606.294 519.714 605.88 519.714 605.474 519.645C605.024 519.59 604.581 519.491 604.15 519.351C603.886 519.277 603.632 519.174 603.39 519.045C603.242 518.958 603.132 518.817 603.084 518.652C603.065 518.562 603.072 518.467 603.105 518.381C603.137 518.294 603.194 518.218 603.267 518.162C603.741 517.929 604.281 517.867 604.796 517.988C605.31 518.109 605.766 518.404 606.087 518.824C606.281 519.064 606.419 519.345 606.491 519.645C606.516 519.754 606.516 519.867 606.491 519.976C606.356 519.597 606.161 519.241 605.915 518.922C605.637 518.597 605.271 518.359 604.861 518.236C604.371 518.075 603.838 518.115 603.378 518.346C603.182 518.493 603.267 518.714 603.488 518.849C603.705 518.971 603.936 519.07 604.174 519.143C604.594 519.287 605.024 519.398 605.462 519.474C606.222 519.608 606.7 519.608 606.7 519.645Z" fill="#263238"/>
<path d="M606.369 519.707C606.22 519.447 606.172 519.141 606.234 518.849C606.267 518.523 606.38 518.212 606.565 517.941C606.671 517.759 606.82 517.605 607 517.494C607.179 517.383 607.384 517.318 607.594 517.304C607.722 517.331 607.833 517.406 607.907 517.513C607.98 517.621 608.008 517.752 607.987 517.88C607.959 518.079 607.884 518.269 607.766 518.432C607.604 518.703 607.411 518.954 607.19 519.18C606.997 519.402 606.753 519.575 606.479 519.682C606.479 519.682 606.724 519.461 607.067 519.069C607.266 518.844 607.438 518.597 607.582 518.334C607.754 518.064 607.864 517.598 607.582 517.537C607.3 517.476 606.957 517.819 606.773 518.064C606.598 518.305 606.477 518.581 606.418 518.873C606.38 519.149 606.363 519.428 606.369 519.707Z" fill="#263238"/>
<path d="M627.243 519.033C627.243 519.033 626.692 519.033 625.822 519.094C624.69 519.206 623.612 519.63 622.708 520.32C621.825 521.047 621.155 522 620.771 523.078C620.627 523.528 620.508 523.986 620.416 524.451C620.416 524.451 620.416 524.316 620.416 524.058C620.455 523.706 620.525 523.357 620.624 523.016C620.971 521.882 621.653 520.878 622.58 520.139C623.508 519.399 624.638 518.958 625.822 518.873C626.172 518.84 626.525 518.84 626.876 518.873C627.006 518.907 627.13 518.961 627.243 519.033Z" fill="#263238"/>
<path d="M617.915 522.072C616.992 522.29 616.044 522.385 615.096 522.354C614.151 522.406 613.203 522.332 612.277 522.134C612.277 522.134 613.502 522.134 615.096 522.134C616.689 522.134 617.915 522.011 617.915 522.072Z" fill="#263238"/>
<path d="M621.727 522.06C621.727 522.06 621.629 522.33 621.494 522.624C621.36 522.918 621.298 523.163 621.237 523.163C621.176 523.163 621.139 522.857 621.237 522.526C621.335 522.195 621.691 522.023 621.727 522.06Z" fill="#263238"/>
<path d="M623.149 520.258C623.149 520.258 623.076 520.503 622.88 520.699C622.683 520.896 622.475 521.03 622.426 520.994C622.377 520.957 622.512 520.736 622.708 520.54C622.904 520.344 623.112 520.258 623.149 520.258Z" fill="#263238"/>
<path d="M625.196 519.474C625.196 519.547 624.927 519.547 624.632 519.645C624.338 519.743 624.154 519.89 624.105 519.854C624.056 519.817 624.216 519.535 624.559 519.425C624.902 519.314 625.27 519.425 625.196 519.474Z" fill="#263238"/>
<path d="M626.643 519.094C626.643 519.155 626.557 519.253 626.397 519.315C626.238 519.376 626.079 519.315 626.067 519.315C626.054 519.315 626.152 519.155 626.312 519.094C626.471 519.033 626.618 519.033 626.643 519.094Z" fill="#263238"/>
<path d="M574.584 260.162L596.17 272.297L597.665 270.778L599.259 273.768L597.788 313.986L656.343 302.954L651.563 296.077C646.966 289.728 647.996 280.817 649.883 273.205L650.533 270.606L662.889 270.802C662.889 270.802 664.114 263.84 662.889 248.346C662.889 248.113 662.889 247.892 662.889 247.66C662.246 240.742 658.922 234.351 653.629 229.852C648.335 225.353 641.492 223.104 634.561 223.585L613.22 225.032C613.22 225.032 596.244 221.538 584.66 241.494L574.584 260.162Z" fill="#455A64"/>
<path d="M600.607 253.641C600.446 254.673 600.187 255.686 599.835 256.669C599.198 258.716 598.438 261.131 597.604 263.815C596.784 266.146 596.921 268.707 597.984 270.937C598.443 271.858 598.852 272.803 599.21 273.768C598.52 272.976 597.954 272.083 597.531 271.121C596.997 270.094 596.645 268.983 596.489 267.836C596.361 266.423 596.511 264.999 596.93 263.644C597.8 260.812 598.708 258.336 599.382 256.522C599.689 255.522 600.1 254.556 600.607 253.641Z" fill="#263238"/>
<path d="M662.889 270.3C662.33 270.353 661.768 270.353 661.209 270.3L656.662 270.005C652.837 269.736 647.542 269.319 641.695 268.78L638.913 268.547H638.606V268.24C638.937 263.055 638.925 258.434 639.133 255.137C639.219 253.482 639.342 252.146 639.44 251.239C639.466 250.766 639.544 250.298 639.672 249.842C639.729 250.314 639.729 250.791 639.672 251.263C639.672 252.293 639.599 253.592 639.55 255.149C639.452 258.446 639.55 263.055 639.244 268.289L638.949 267.946L641.744 268.191C647.579 268.694 652.874 269.184 656.698 269.576L661.222 270.067C661.784 270.088 662.342 270.166 662.889 270.3Z" fill="#263238"/>
<path d="M662.57 247.255C662.291 247.239 662.016 247.189 661.749 247.108L659.395 246.581C656.524 245.895 653.613 245.384 650.68 245.049C648.642 244.853 646.589 244.853 644.551 245.049C642.239 245.269 639.96 245.759 637.76 246.507C633.053 247.978 628.187 250.528 622.561 251.888C621.168 252.224 619.749 252.442 618.32 252.538C616.926 252.596 615.53 252.518 614.152 252.305C611.581 251.798 609.102 250.905 606.797 249.658C602.385 247.353 598.671 244.852 595.116 243.713C592.388 242.65 589.43 242.32 586.536 242.756C585.488 242.995 584.463 243.323 583.471 243.737C584.387 243.135 585.411 242.719 586.486 242.511C589.444 241.963 592.495 242.23 595.312 243.284C598.989 244.399 602.74 246.887 607.116 249.13C609.375 250.342 611.805 251.202 614.324 251.68C617.04 252.1 619.814 251.962 622.475 251.276C627.991 249.939 632.87 247.402 637.638 245.943C639.886 245.197 642.215 244.72 644.576 244.522C646.619 244.371 648.671 244.421 650.705 244.669C653.65 245.041 656.567 245.619 659.432 246.397L661.749 247.047C662.029 247.087 662.304 247.156 662.57 247.255Z" fill="#FAFAFA"/>
<path d="M637.638 280.449C637.105 280.514 636.569 280.547 636.032 280.547C634.575 280.644 633.128 280.857 631.705 281.184C629.603 281.692 627.528 282.31 625.491 283.035C623.174 283.844 620.588 284.776 617.866 285.487C615.252 286.192 612.534 286.429 609.838 286.185C607.628 285.93 605.506 285.171 603.635 283.967C602.382 283.143 601.32 282.061 600.522 280.792C600.313 280.45 600.136 280.089 599.995 279.713C599.884 279.456 599.848 279.321 599.872 279.309C599.897 279.297 600.142 279.824 600.73 280.657C601.575 281.833 602.646 282.829 603.88 283.587C605.714 284.692 607.769 285.379 609.899 285.597C612.524 285.801 615.166 285.552 617.707 284.862C620.44 284.187 622.966 283.268 625.307 282.496C627.371 281.779 629.48 281.198 631.619 280.755C633.067 280.457 634.542 280.309 636.02 280.314C636.563 280.282 637.108 280.327 637.638 280.449Z" fill="#FAFAFA"/>
<g opacity="0.3">
<path opacity="0.3" d="M639.427 250.589C636.792 257.11 636.473 264.293 635.566 271.268C634.659 278.242 632.931 285.487 628.212 290.66C623.493 295.832 615.954 298.235 609.016 300.257L639.501 297.597L639.427 250.589Z" fill="black"/>
</g>
<path d="M637.773 423.839C637.773 423.839 648.719 377.26 658.501 348.896C668.307 320.262 654.223 302.084 654.223 302.084L598.818 308.556L588.154 349.521C588.154 349.521 579.684 393.269 583.079 425.519L637.773 423.839Z" fill="#455A64"/>
<path d="M653.732 359.584C653.295 358.793 652.812 358.028 652.286 357.292C650.762 355.352 648.772 353.83 646.5 352.867C643.136 351.433 639.462 350.876 635.824 351.249C631.355 351.754 626.927 352.573 622.573 353.701C618.171 354.819 613.603 355.13 609.09 354.62C605.435 353.906 601.952 352.495 598.83 350.465C596.72 349.166 594.539 347.988 592.297 346.935C590.691 346.236 589.747 345.978 589.772 345.917C590.006 345.933 590.237 345.983 590.458 346.064C591.116 346.243 591.762 346.46 592.395 346.714C594.688 347.68 596.912 348.802 599.051 350.072C602.149 352.014 605.583 353.361 609.176 354.044C613.635 354.503 618.141 354.175 622.487 353.076C626.872 351.953 631.334 351.154 635.836 350.685C639.567 350.337 643.325 350.958 646.745 352.487C649.057 353.509 651.057 355.125 652.543 357.17C652.773 357.484 652.978 357.816 653.156 358.163C653.301 358.412 653.432 358.67 653.548 358.935C653.635 359.143 653.697 359.361 653.732 359.584Z" fill="#FAFAFA"/>
<path d="M640.666 406.262C640.134 405.628 639.561 405.03 638.949 404.472C637.192 403.024 635.073 402.083 632.821 401.751C629.506 401.325 626.137 401.725 623.014 402.915C619.411 404.141 615.66 406.078 611.517 407.61C607.589 409.121 603.348 409.635 599.173 409.106C595.776 408.666 592.498 407.562 589.527 405.857C587.527 404.725 585.702 403.309 584.109 401.653C583.673 401.207 583.264 400.736 582.883 400.243C582.732 400.081 582.605 399.9 582.503 399.704C582.503 399.704 583.116 400.366 584.28 401.469C585.913 403.043 587.752 404.387 589.747 405.465C592.692 407.075 595.916 408.11 599.247 408.517C603.33 409.004 607.471 408.487 611.308 407.009C615.415 405.514 619.153 403.541 622.818 402.364C626.046 401.162 629.525 400.799 632.931 401.31C635.211 401.705 637.335 402.733 639.06 404.276C639.518 404.705 639.929 405.182 640.286 405.698C640.58 406.102 640.69 406.262 640.666 406.262Z" fill="#FAFAFA"/>
<g opacity="0.2">
<path opacity="0.2" d="M592.174 374.073C591.53 376.261 591.388 378.565 591.757 380.815C592.297 383.021 594.209 385.068 596.452 385.007C597.678 385.007 598.904 384.394 599.97 385.007C600.71 385.667 601.185 386.573 601.306 387.557C601.944 389.855 603.205 391.932 604.949 393.559C606.694 395.186 608.854 396.299 611.191 396.776C613.528 397.253 615.951 397.075 618.193 396.261C620.436 395.448 622.409 394.03 623.897 392.166C626.912 388.39 627.574 383.193 626.937 378.4C626.299 373.607 624.4 369.097 622.818 364.586C619.638 355.172 617.255 345.508 615.697 335.694C615.19 333.767 615.267 331.732 615.917 329.848C617.302 326.844 621.065 325.974 624.314 325.41C636.695 323.254 648.935 320.348 660.964 316.707C654.137 315.2 647.015 316.241 640.126 317.504C632.486 318.901 624.902 320.56 617.376 322.481C615.432 322.815 613.613 323.662 612.105 324.932C610.831 326.499 609.986 328.37 609.654 330.362C605.536 346.169 599.31 361.349 591.144 375.495" fill="black"/>
</g>
<path d="M608.93 324.307L661.994 315.727C661.331 313.17 660.513 310.657 659.542 308.2C658.476 305.528 655.522 303.444 654.174 302.071C651.023 298.884 606.785 318.399 606.785 318.399L608.93 324.307Z" fill="#FE7F7F"/>
<path d="M608.93 324.294L594.295 319.428L596.477 307.33L610.818 318.521L608.93 324.294Z" fill="#FE7F7F"/>
<path d="M609.126 324.294C609.126 324.294 605.069 338.881 605.192 348.528C605.314 358.175 605.694 378.326 607.03 385.436C608.366 392.545 627.672 384.418 623.946 377.811C620.22 371.205 613.625 347.51 613.453 341.933C613.282 336.356 613.797 322.468 613.797 322.468L609.126 324.294Z" fill="#FE7F7F"/>
<path d="M622.818 375.789C622.497 376.648 622.01 377.435 621.384 378.106C618.545 381.557 614.465 383.758 610.021 384.235C609.114 384.387 608.186 384.362 607.288 384.161C608.172 383.99 609.064 383.863 609.96 383.781C612.055 383.432 614.079 382.745 615.954 381.746C617.838 380.726 619.54 379.4 620.992 377.824C622.107 376.598 622.684 375.74 622.818 375.789Z" fill="#263238"/>
<path d="M612.485 388.218C612.326 388.28 611.835 387.385 611.394 386.22C610.953 385.056 610.72 384.063 610.892 384.002C611.063 383.94 611.541 384.823 611.983 385.988C612.424 387.152 612.657 388.157 612.485 388.218Z" fill="#263238"/>
<path d="M618.504 385.951C618.344 386.024 617.756 385.179 617.204 384.063C616.653 382.948 616.309 381.967 616.469 381.893C616.628 381.82 617.204 382.653 617.768 383.781C618.332 384.909 618.663 385.865 618.504 385.951Z" fill="#263238"/>
<path d="M623.529 382.175C623.382 382.261 622.745 381.428 622.107 380.312C621.47 379.197 621.078 378.228 621.237 378.143C621.397 378.057 622.022 378.878 622.659 380.006C623.296 381.133 623.689 382.089 623.529 382.175Z" fill="#263238"/>
<path d="M605.658 321.598C600.558 330.914 602.74 343.159 596.771 351.923C594.393 355.429 590.801 358.199 589.416 362.195C588.855 363.79 588.716 365.503 589.013 367.168C589.309 368.832 590.031 370.392 591.108 371.695C592.227 372.961 593.704 373.856 595.344 374.264C596.983 374.671 598.708 374.57 600.289 373.975C602.583 372.888 604.382 370.975 605.327 368.618C606.257 366.28 606.891 363.834 607.214 361.337C609.102 350.354 610.986 339.367 612.865 328.376C613.233 326.182 613.588 323.792 612.51 321.843C611.431 319.894 608.281 319.036 606.994 320.862" fill="#FE7F7F"/>
<path d="M605.658 373.411C605.53 372.764 605.448 372.108 605.412 371.45C605.29 370.224 605.143 368.336 605.02 366.069C604.751 361.521 604.579 355.221 604.738 348.271C604.898 341.32 605.363 335.032 605.829 330.497C606.062 328.229 606.283 326.403 606.467 325.14C606.532 324.483 606.647 323.831 606.81 323.191C606.841 323.85 606.812 324.511 606.724 325.165C606.601 326.55 606.454 328.352 606.283 330.534C605.927 335.069 605.535 341.345 605.376 348.283C605.216 355.221 605.376 361.497 605.474 366.044C605.547 368.238 605.609 370.04 605.658 371.425C605.721 372.086 605.721 372.751 605.658 373.411Z" fill="#263238"/>
<path d="M602.25 372.394C601.422 372.46 600.589 372.364 599.798 372.112C595.929 371.14 592.575 368.729 590.421 365.37C589.927 364.719 589.576 363.972 589.391 363.176C590.787 365.506 592.644 367.525 594.849 369.111C597.054 370.696 599.56 371.813 602.213 372.394H602.25Z" fill="#263238"/>
<path d="M596.011 370.224C596.121 370.371 595.435 371.07 594.491 371.793C593.547 372.516 592.701 373.019 592.591 372.86C592.481 372.7 593.167 372.014 594.111 371.291C595.055 370.567 595.851 370.089 596.011 370.224Z" fill="#263238"/>
<path d="M591.206 366.449C591.292 366.596 590.85 367.013 590.385 367.552C589.919 368.091 589.539 368.569 589.379 368.496C589.22 368.422 589.379 367.748 589.907 367.135C590.434 366.522 591.12 366.289 591.206 366.449Z" fill="#263238"/>
<path d="M614.238 317.197C614.238 317.197 614.459 317.43 614.643 317.957C614.872 318.716 614.93 319.515 614.814 320.299C614.642 321.482 614.107 322.583 613.282 323.449C612.21 324.474 610.781 325.041 609.298 325.03C607.815 325.018 606.395 324.429 605.339 323.388C604.518 322.518 603.995 321.411 603.844 320.225C603.735 319.439 603.807 318.639 604.052 317.884C604.12 317.6 604.259 317.339 604.456 317.124C604.206 318.113 604.147 319.141 604.285 320.152C604.488 321.219 605 322.203 605.756 322.983C606.726 323.873 607.994 324.367 609.31 324.367C610.627 324.367 611.895 323.873 612.865 322.983C613.636 322.219 614.162 321.241 614.373 320.176C614.526 319.184 614.48 318.171 614.238 317.197Z" fill="#263238"/>
<path d="M611.394 324.135C611.058 322.886 610.649 321.659 610.169 320.458C609.482 319.378 608.729 318.342 607.913 317.357C609.119 317.983 610.104 318.964 610.735 320.167C611.367 321.37 611.614 322.738 611.443 324.086L611.394 324.135Z" fill="#263238"/>
<path d="M567.965 312.588C568.517 309.867 579.941 311.644 580.921 311.73C581.902 311.816 582.037 310.394 581.154 310.37C579.929 310.37 566.445 309.646 567.033 306.974C567.315 305.491 569.926 306.263 569.926 306.263C569.926 306.263 582.392 307.832 582.601 306.558C582.809 305.283 575.516 304.106 573.04 303.885C570.564 303.665 569.681 302.402 570.686 301.434C571.373 300.747 578.997 301.25 581.449 301.52C583.9 301.789 590.617 302.672 587.651 299.546C584.685 296.42 583.606 292.915 583.974 291.75C584.086 291.494 584.275 291.28 584.515 291.136C584.755 290.993 585.033 290.927 585.312 290.949C585.59 290.97 585.855 291.078 586.07 291.256C586.285 291.435 586.439 291.676 586.511 291.946C587.118 293.272 587.901 294.509 588.84 295.624C589.562 296.546 590.437 297.338 591.426 297.965C592.579 298.688 593.584 299.191 594.454 299.718C601.269 299.595 620.465 298.578 636.02 291.137C638.827 289.801 639.035 268.424 639.035 268.424L662.901 270.544C662.901 270.544 662.901 276.673 661.087 292.608C657.74 321.426 592.113 317.026 592.113 317.026C587.545 317.752 582.942 318.231 578.323 318.46C571.924 318.46 571.912 317.933 572.035 317.234C572.366 315.224 583.299 316.731 581.13 315.04C578.96 313.348 567.536 314.66 567.965 312.588Z" fill="#FFBE9D"/>
<g opacity="0.3">
<path opacity="0.3" d="M589.723 269.049C594.204 264.663 597.865 259.512 600.534 253.837C598.793 258.471 597.028 263.264 597.163 268.216C597.163 269.674 597.322 271.366 596.244 272.359C594.289 270.95 592.132 269.846 589.845 269.086" fill="black"/>
</g>
<path d="M636.706 179.74L636.645 182.829L636.032 229.003C635.973 230.315 635.653 231.601 635.093 232.789C634.532 233.976 633.742 235.04 632.767 235.919C631.792 236.798 630.652 237.475 629.413 237.91C628.175 238.345 626.862 238.53 625.552 238.454C619.754 238.332 615.047 233.845 615.022 228.427C615.022 222.74 614.888 216.758 614.888 216.758C614.888 216.758 607.533 215.532 606.05 205.984C605.29 201.228 605.535 193.432 605.927 187.07C606.012 185.711 606.371 184.383 606.983 183.166C607.594 181.95 608.445 180.869 609.485 179.99C610.525 179.111 611.731 178.45 613.033 178.049C614.334 177.648 615.703 177.515 617.057 177.656L636.706 179.74Z" fill="#FFBE9D"/>
<path d="M608.109 192.978C608.109 193.303 608.238 193.615 608.468 193.845C608.698 194.075 609.01 194.204 609.335 194.204C609.64 194.205 609.934 194.093 610.161 193.889C610.388 193.685 610.53 193.404 610.561 193.101C610.561 192.775 610.431 192.464 610.202 192.234C609.972 192.004 609.66 191.875 609.335 191.875C609.03 191.873 608.735 191.985 608.509 192.189C608.282 192.393 608.139 192.675 608.109 192.978Z" fill="#263238"/>
<path d="M607.619 191.127C607.778 191.286 608.698 190.6 610.07 190.6C611.443 190.6 612.35 191.262 612.522 191.103C612.694 190.943 612.436 190.735 612.019 190.428C611.446 190.034 610.766 189.824 610.07 189.828C609.383 189.829 608.713 190.047 608.158 190.453C607.68 190.759 607.545 191.054 607.619 191.127Z" fill="#263238"/>
<path d="M620.563 192.978C620.563 193.303 620.692 193.615 620.922 193.845C621.152 194.075 621.464 194.204 621.789 194.204C622.094 194.205 622.388 194.093 622.615 193.889C622.842 193.685 622.984 193.404 623.014 193.101C623.014 192.775 622.885 192.464 622.656 192.234C622.426 192.004 622.114 191.875 621.789 191.875C621.484 191.873 621.189 191.985 620.963 192.189C620.736 192.393 620.593 192.675 620.563 192.978Z" fill="#263238"/>
<path d="M620.587 191.372C620.734 191.532 621.666 190.845 623.039 190.845C624.412 190.845 625.319 191.507 625.49 191.348C625.662 191.188 625.405 190.98 624.976 190.674C624.41 190.282 623.739 190.073 623.051 190.073C622.364 190.073 621.692 190.282 621.127 190.674C620.649 191.005 620.514 191.299 620.587 191.372Z" fill="#263238"/>
<path d="M615.795 201.141C615.102 200.929 614.386 200.802 613.662 200.761C613.319 200.761 613 200.663 612.939 200.431C612.919 200.08 613 199.731 613.172 199.425C613.49 198.616 613.821 197.758 614.165 196.864C615.09 194.692 615.841 192.45 616.408 190.159C615.307 192.246 614.376 194.418 613.625 196.655C613.294 197.562 612.976 198.42 612.681 199.242C612.462 199.646 612.396 200.116 612.498 200.565C612.551 200.683 612.628 200.788 612.726 200.872C612.823 200.957 612.938 201.019 613.061 201.056C613.246 201.101 613.435 201.126 613.625 201.129C614.344 201.234 615.075 201.239 615.795 201.141Z" fill="#263238"/>
<path d="M614.888 216.758C619.4 216.828 623.842 215.644 627.721 213.338C627.721 213.338 624.62 219.908 615.059 219.013L614.888 216.758Z" fill="#EB996E"/>
<path d="M616.358 204.329C616.614 204.018 616.943 203.775 617.315 203.621C617.687 203.467 618.091 203.407 618.491 203.446C618.781 203.472 619.063 203.556 619.32 203.692C619.577 203.829 619.804 204.016 619.987 204.243C620.163 204.465 620.267 204.735 620.284 205.018C620.302 205.301 620.232 205.582 620.085 205.824C619.872 206.059 619.594 206.226 619.286 206.303C618.978 206.379 618.655 206.362 618.356 206.253C617.737 206.031 617.17 205.685 616.689 205.236C616.535 205.135 616.405 205.001 616.309 204.843C616.261 204.771 616.235 204.686 616.235 204.598C616.235 204.511 616.261 204.426 616.309 204.353" fill="#FE7F7F"/>
<path d="M619.68 202.061C619.46 202.061 619.46 203.483 618.234 204.513C617.008 205.542 615.488 205.371 615.476 205.567C615.464 205.763 615.819 205.849 616.456 205.861C617.294 205.873 618.11 205.591 618.761 205.064C619.386 204.552 619.79 203.819 619.889 203.017C619.938 202.404 619.778 202.049 619.68 202.061Z" fill="#263238"/>
<path d="M638.324 223.549C635.505 222.568 632.195 221.575 631.105 218.78C630.105 215.939 630.032 212.853 630.896 209.967C631.276 208.643 631.815 207.185 631.227 205.934C630.679 205.09 629.971 204.361 629.143 203.789C627.497 202.208 626.526 200.051 626.434 197.771C626.356 195.505 626.774 193.25 627.66 191.164C628.277 190.07 628.482 188.792 628.236 187.56C627.849 186.77 627.282 186.082 626.581 185.55C625.22 184.279 624.095 182.777 623.26 181.113C622.908 180.554 622.685 179.925 622.606 179.27C622.528 178.615 622.596 177.95 622.806 177.325C623.493 175.891 625.258 175.437 626.888 175.315C630.676 175.033 634.855 175.866 637.258 178.796C639.428 181.419 639.709 185.084 639.82 188.479C640.31 199.193 640.776 209.992 638.925 220.546" fill="#263238"/>
<path d="M602.311 178.673C602.835 179.003 603.379 179.298 603.942 179.556C604.436 179.925 604.9 180.335 605.327 180.781C605.572 181.027 605.842 181.284 606.074 181.566C606.074 181.627 606.172 181.701 606.246 181.774L606.516 182.044L607.178 182.669C607.818 183.259 608.502 183.8 609.225 184.287C610.805 185.349 612.64 185.971 614.54 186.087C616.441 186.203 618.338 185.811 620.036 184.949C621.585 184.202 622.943 183.112 624.007 181.762C625.638 179.592 625.883 177.84 625.135 176.859C624.387 175.878 622.5 176.038 620.391 176.565C619.362 176.827 618.318 177.032 617.266 177.178C616.45 177.289 615.623 177.269 614.814 177.116C614.418 177.014 614.032 176.874 613.662 176.7C613.135 176.467 612.436 176.099 611.688 175.744C611.308 175.56 610.892 175.376 610.463 175.204L609.788 174.959L609.041 174.738C608.105 174.496 607.135 174.417 606.172 174.506C605.411 174.534 604.665 174.731 603.989 175.083C603.312 175.435 602.723 175.933 602.262 176.54C601.997 176.835 601.855 177.22 601.864 177.616C601.873 178.013 602.033 178.391 602.311 178.673Z" fill="#263238"/>
<path d="M620.244 186.199C620.379 186.555 621.691 186.383 623.235 186.579C624.78 186.776 626.042 187.18 626.238 186.861C626.434 186.543 626.116 186.371 625.613 186.028C624.945 185.588 624.179 185.319 623.382 185.243C622.591 185.153 621.79 185.245 621.041 185.513C620.477 185.746 620.183 186.028 620.244 186.199Z" fill="#263238"/>
<path d="M608.109 187.303C608.342 187.609 609.249 187.303 610.34 187.303C611.431 187.303 612.363 187.499 612.571 187.192C612.779 186.886 612.571 186.739 612.117 186.457C611.573 186.117 610.94 185.946 610.299 185.966C609.658 185.986 609.036 186.195 608.514 186.567C608.109 186.849 607.999 187.155 608.109 187.303Z" fill="#263238"/>
<path d="M59.467 512.009L56.6968 523.225L75.782 525.37L76.4684 514.252L59.467 512.009Z" fill="#455A64"/>
<path d="M68.0843 512.56C67.8595 516.022 67.2469 519.447 66.2579 522.771C66.4827 519.31 67.0954 515.885 68.0843 512.56Z" fill="#263238"/>
<path d="M75.8557 524.144C74.9291 524.125 74.006 524.022 73.0977 523.837L66.4786 522.857C63.8922 522.464 61.5755 522.072 59.8717 521.729C58.9542 521.6 58.0539 521.37 57.1873 521.043C58.1139 521.071 59.0366 521.177 59.9452 521.361L66.5644 522.342C69.1508 522.734 71.4675 523.126 73.1713 523.47C74.086 523.606 74.9851 523.832 75.8557 524.144Z" fill="#263238"/>
<path d="M146.73 519.523L146.534 512.56H125.867L126.002 525.112H127.228C132.952 525.308 156.34 525.676 160.14 524.426C164.381 523.09 146.73 519.523 146.73 519.523Z" fill="#455A64"/>
<path d="M125.695 524.647H126.051H127.068L130.844 524.732C134.018 524.732 138.419 524.732 143.273 524.671C148.127 524.61 152.528 524.389 155.702 524.205L159.465 523.96L160.483 523.887H160.838C160.72 523.87 160.601 523.87 160.483 523.887H159.453L155.69 524.046C152.515 524.181 148.127 524.352 143.273 524.45C138.419 524.549 134.018 524.573 130.844 524.573H126.051C125.929 524.579 125.809 524.603 125.695 524.647Z" fill="#263238"/>
<path d="M153.606 524.598C153.76 523.97 153.982 523.362 154.268 522.783C154.625 522.256 155.036 521.767 155.494 521.325C154.855 521.568 154.333 522.046 154.035 522.661C153.66 523.232 153.507 523.921 153.606 524.598Z" fill="#263238"/>
<path d="M147.428 521.631C147.49 521.631 147.771 521.312 148.066 520.822C148.36 520.332 148.544 519.927 148.482 519.891C148.421 519.854 148.139 520.209 147.845 520.7C147.551 521.19 147.367 521.594 147.428 521.631Z" fill="#263238"/>
<path d="M145.737 520.785C145.737 520.785 146.105 520.614 146.448 520.283C146.791 519.952 147.048 519.645 146.999 519.596C146.95 519.547 146.632 519.768 146.276 520.099C145.921 520.43 145.688 520.736 145.737 520.785Z" fill="#263238"/>
<path d="M144.633 518.849C145.341 519.028 146.083 519.028 146.791 518.849C146.081 518.685 145.343 518.685 144.633 518.849Z" fill="#263238"/>
<path d="M144.229 517.488C144.597 517.712 145.024 517.823 145.455 517.807C145.874 517.862 146.3 517.794 146.681 517.611C146.273 517.574 145.863 517.574 145.455 517.611C145.051 517.528 144.641 517.487 144.229 517.488Z" fill="#263238"/>
<path d="M148.09 519.817C148.533 519.888 148.984 519.888 149.426 519.817C149.905 519.741 150.376 519.626 150.836 519.474C151.113 519.384 151.381 519.265 151.633 519.118C151.789 519.02 151.903 518.867 151.951 518.689C151.969 518.591 151.959 518.489 151.922 518.396C151.885 518.303 151.823 518.222 151.743 518.162C151.229 517.926 150.649 517.876 150.101 518.019C149.554 518.162 149.073 518.489 148.74 518.947C148.539 519.212 148.397 519.517 148.323 519.841C148.293 519.962 148.293 520.088 148.323 520.209C148.446 519.794 148.641 519.404 148.899 519.057C149.196 518.702 149.587 518.439 150.027 518.297C150.282 518.202 150.553 518.16 150.825 518.173C151.097 518.185 151.363 518.253 151.608 518.37C151.829 518.518 151.755 518.763 151.522 518.91C151.285 519.049 151.035 519.164 150.775 519.253C150.333 519.418 149.878 519.545 149.414 519.633C148.593 519.756 148.09 519.768 148.09 519.817Z" fill="#263238"/>
<path d="M148.446 519.866C148.61 519.589 148.658 519.259 148.581 518.947C148.535 518.598 148.404 518.265 148.201 517.978C148.085 517.782 147.92 517.619 147.722 517.505C147.525 517.392 147.301 517.331 147.073 517.329C147.006 517.343 146.942 517.371 146.886 517.41C146.829 517.45 146.781 517.5 146.745 517.558C146.708 517.617 146.684 517.682 146.673 517.75C146.662 517.818 146.664 517.887 146.681 517.954C146.713 518.165 146.792 518.366 146.914 518.542C147.099 518.828 147.317 519.091 147.563 519.327C147.774 519.563 148.039 519.744 148.336 519.854C148.336 519.854 148.066 519.621 147.686 519.204C147.468 518.965 147.279 518.702 147.122 518.42C146.926 518.138 146.791 517.635 147.122 517.574C147.453 517.512 147.808 517.856 148.017 518.113C148.202 518.371 148.335 518.662 148.409 518.971C148.454 519.267 148.466 519.567 148.446 519.866Z" fill="#263238"/>
<path d="M125.989 519.033C126.5 519.006 127.011 519.006 127.522 519.033C128.744 519.153 129.91 519.607 130.892 520.344C131.862 521.091 132.604 522.093 133.038 523.237C133.381 524.12 133.418 524.72 133.467 524.708C133.493 524.57 133.493 524.429 133.467 524.291C133.424 523.912 133.342 523.538 133.221 523.176C132.814 521.971 132.059 520.913 131.052 520.136C130.031 519.388 128.811 518.961 127.546 518.91C127.167 518.875 126.785 518.875 126.406 518.91C126.136 518.91 125.989 518.947 125.989 519.033Z" fill="#263238"/>
<path d="M136.065 522.71C137.062 522.909 138.078 522.987 139.093 522.943C140.112 522.971 141.13 522.864 142.121 522.624C142.121 522.55 140.76 522.624 139.093 522.685C137.426 522.746 136.065 522.636 136.065 522.71Z" fill="#263238"/>
<path d="M132.008 522.783C132.008 522.783 132.118 523.065 132.265 523.384C132.413 523.703 132.486 523.96 132.56 523.948C132.633 523.935 132.658 523.629 132.486 523.274C132.314 522.918 132.045 522.71 132.008 522.783Z" fill="#263238"/>
<path d="M130.427 520.92C130.427 520.92 130.525 521.178 130.745 521.386C130.966 521.594 131.174 521.741 131.223 521.68C131.272 521.619 131.138 521.423 130.917 521.214C130.696 521.006 130.476 520.871 130.427 520.92Z" fill="#263238"/>
<path d="M128.221 520.099C128.221 520.16 128.515 520.16 128.821 520.258C129.128 520.356 129.348 520.516 129.41 520.467C129.471 520.418 129.275 520.136 128.895 520.013C128.515 519.89 128.196 520.025 128.221 520.099Z" fill="#263238"/>
<path d="M126.651 519.719C126.651 519.78 126.749 519.891 126.933 519.952C127.117 520.013 127.264 520.013 127.289 519.952C127.313 519.891 127.191 519.78 127.019 519.719C126.847 519.658 126.676 519.658 126.651 519.719Z" fill="#263238"/>
<path d="M222.457 249.927L216.574 252.734L211.156 244.24L214.33 237.682C214.625 237.069 214.956 236.382 215.286 235.598C215.678 234.683 215.914 233.71 215.985 232.717C216.122 231.493 216.089 230.255 215.887 229.04C215.593 227.949 216.757 227.042 217.542 227.692C218.326 228.341 219.209 231.369 218.621 234.936C218.032 238.503 222.298 234.715 223.806 233.342C225.313 231.97 230.376 227.974 231.16 228.121C232.386 228.354 232.288 229.665 230.694 231.001C229.101 232.337 224.627 236.664 225.375 237.461C226.294 237.559 227.16 237.943 227.851 238.559C228.541 239.174 229.021 239.991 229.223 240.893C229.616 242.671 229.947 245.122 228.942 245.943C226.868 247.409 224.702 248.74 222.457 249.927Z" fill="#B78876"/>
<path d="M108.4 170.693L108.24 221.784L130.157 222.825L130.795 210.396C130.795 210.396 138.578 211.941 140.601 204.721C141.826 200.1 141.569 164.405 141.569 164.405L108.4 170.693Z" fill="#B78876"/>
<path d="M146.497 169.443C145.026 172.496 137.99 178.024 137.99 178.024L134.815 186.531C132.057 184.373 128.355 184.496 127.657 189.338C127.154 192.843 131.506 193.554 131.506 193.554C128.968 197.869 127.252 201.362 123.563 205.469C119.567 209.906 117.323 210.372 112.984 210.372H108.216C108.216 210.372 98.4098 202.208 100.371 180.684C102.332 159.159 121.65 165.447 126.259 160.066C133.736 151.425 151.424 159.245 146.497 169.443Z" fill="#263238"/>
<path d="M101.45 198.788C101.45 198.788 101.67 198.788 102.062 198.788C102.643 198.766 103.221 198.697 103.791 198.58C105.889 198.092 107.825 197.065 109.405 195.601C111.674 193.368 113.588 190.801 115.08 187.989C116.931 184.937 118.966 181.358 122.435 178.943C124.142 177.809 126.034 176.98 128.024 176.491C129.936 176.001 131.8 175.694 133.565 175.351C136.728 174.941 139.755 173.814 142.415 172.054C144.152 170.783 145.413 168.966 145.994 166.893C146.176 166.127 146.242 165.338 146.19 164.552C146.19 164.552 146.19 164.761 146.264 165.153C146.283 165.742 146.225 166.331 146.092 166.906C145.544 169.024 144.285 170.889 142.525 172.189C139.859 173.998 136.808 175.161 133.614 175.584C130.12 176.295 126.038 176.81 122.582 179.09C119.125 181.37 117.127 185.01 115.227 188.05C113.711 190.876 111.763 193.449 109.454 195.675C107.849 197.144 105.881 198.159 103.754 198.616C103.001 198.803 102.222 198.861 101.45 198.788Z" fill="#455A64"/>
<path d="M100.322 181.284C100.322 181.284 100.665 181.149 101.339 180.929C102.311 180.58 103.318 180.338 104.343 180.206C105.983 179.957 107.658 180.319 109.049 181.223C109.924 181.803 110.533 182.707 110.741 183.736C110.856 184.309 110.828 184.903 110.659 185.463C110.491 186.023 110.186 186.533 109.773 186.947C109.294 187.372 108.684 187.619 108.044 187.646C107.38 187.659 106.726 187.485 106.157 187.143C104.953 186.43 104.057 185.294 103.644 183.956C103.156 182.506 103.102 180.946 103.487 179.466C103.872 177.985 104.681 176.649 105.813 175.621C107.05 174.513 108.601 173.819 110.251 173.635C111.96 173.535 113.673 173.755 115.301 174.285C116.964 174.82 118.664 175.23 120.388 175.511C122.17 175.744 123.975 175.744 125.757 175.511C127.538 175.298 129.278 174.819 130.917 174.089C131.713 173.762 132.431 173.271 133.024 172.648C133.618 172.025 134.073 171.284 134.362 170.473C134.591 169.678 134.607 168.836 134.407 168.033C134.207 167.231 133.798 166.495 133.222 165.901C132.635 165.369 131.904 165.023 131.12 164.907C130.337 164.791 129.536 164.911 128.821 165.251C128.117 165.552 127.541 166.09 127.191 166.771C126.863 167.435 126.743 168.183 126.848 168.916C126.947 169.623 127.196 170.301 127.579 170.903C127.961 171.506 128.469 172.019 129.066 172.41C130.216 173.119 131.54 173.492 132.891 173.488C134.139 173.511 135.382 173.324 136.568 172.937C138.625 172.293 140.493 171.157 142.01 169.627C143.901 167.753 145.229 165.389 145.847 162.8C145.982 162.113 146.068 161.758 146.068 161.758C146.068 161.758 146.068 162.113 145.896 162.812C145.318 165.434 144.004 167.836 142.108 169.737C140.581 171.287 138.701 172.443 136.629 173.108C135.444 173.503 134.201 173.697 132.952 173.684C131.568 173.693 130.21 173.315 129.03 172.593C128.399 172.185 127.865 171.644 127.463 171.01C127.061 170.375 126.801 169.661 126.701 168.916C126.584 168.136 126.713 167.34 127.068 166.636C127.44 165.911 128.051 165.335 128.797 165.006C129.556 164.648 130.405 164.522 131.235 164.644C132.066 164.766 132.842 165.131 133.467 165.692C134.082 166.313 134.52 167.087 134.735 167.934C134.951 168.781 134.936 169.67 134.693 170.51C134.4 171.358 133.929 172.134 133.312 172.785C132.694 173.436 131.945 173.948 131.113 174.285C129.448 175.033 127.679 175.525 125.867 175.744C124.065 175.983 122.239 175.983 120.437 175.744C118.7 175.466 116.988 175.056 115.313 174.518C113.734 173.997 112.071 173.777 110.41 173.868C109.273 173.987 108.178 174.36 107.204 174.959C106.231 175.558 105.405 176.368 104.787 177.33C104.169 178.291 103.775 179.38 103.635 180.514C103.494 181.648 103.61 182.8 103.975 183.883C104.385 185.175 105.258 186.271 106.426 186.959C106.963 187.281 107.578 187.451 108.204 187.45C108.801 187.422 109.371 187.193 109.822 186.8C110.216 186.407 110.507 185.923 110.67 185.391C110.833 184.858 110.861 184.294 110.753 183.748C110.662 183.253 110.473 182.782 110.197 182.361C109.921 181.94 109.565 181.578 109.148 181.296C107.782 180.406 106.141 180.04 104.526 180.267C103.504 180.383 102.497 180.609 101.523 180.941L100.322 181.284Z" fill="#455A64"/>
<path d="M85.8701 320.36L56.6968 512.009L80.9302 515.086L115.129 354.338L123.734 516.164L150.002 515.711L145.528 315.42L85.8701 320.36Z" fill="#263238"/>
<path d="M123.158 516.789V516.201L114.798 359.008L81.4083 515.76L55.9982 512.536L85.3431 319.796H85.8211L146.129 314.795V315.445L150.615 516.348L123.158 516.789ZM115.485 349.68L124.31 515.539L149.377 515.098L144.928 316.082L86.4095 320.985L57.3955 511.482L80.4522 514.411L115.485 349.68Z" fill="#263238"/>
<path d="M142.194 515.355C142.023 515.355 141.876 476.952 141.876 429.551C141.876 382.151 142.023 343.747 142.194 343.747C142.366 343.747 142.513 382.139 142.513 429.551C142.513 476.964 142.317 515.355 142.194 515.355Z" fill="#455A64"/>
<path d="M75.5981 514.706C75.5866 514.563 75.5866 514.419 75.5981 514.277C75.5981 513.97 75.733 513.578 75.8188 513.051L76.7013 508.393C77.5226 504.311 78.6871 498.476 80.1212 491.232C83.0508 476.793 87.2184 456.911 91.9989 434.908C96.7794 412.905 101.29 393.085 104.637 378.743C106.316 371.597 107.689 365.811 108.645 361.754C109.135 359.793 109.503 358.248 109.773 357.158C109.907 356.655 110.005 356.263 110.091 355.932C110.12 355.793 110.161 355.658 110.214 355.527C110.228 355.666 110.228 355.805 110.214 355.944C110.153 356.25 110.067 356.655 109.969 357.17C109.724 358.273 109.38 359.817 108.951 361.803C108.044 365.86 106.745 371.609 105.139 378.829C101.903 393.207 97.4781 413.065 92.6854 435.031C87.8926 456.996 83.676 476.903 80.6238 491.318C79.1038 498.489 77.8781 504.311 76.9465 508.381C76.5175 510.366 76.1865 511.923 75.9414 513.014L75.6717 514.24C75.6632 514.397 75.6386 514.553 75.5981 514.706Z" fill="#455A64"/>
<path d="M123.734 354.167C122.37 354.412 120.989 354.547 119.603 354.571C117.041 354.755 113.474 354.939 109.625 355.319C105.776 355.699 102.271 356.214 99.7089 356.545C98.3414 356.793 96.9556 356.929 95.5658 356.949C96.899 356.562 98.2593 356.275 99.6353 356.091C102.16 355.662 105.666 355.074 109.564 354.681C113.462 354.289 117.017 354.191 119.579 354.13C120.963 354.034 122.352 354.047 123.734 354.167Z" fill="#455A64"/>
<path d="M146.153 341.725C145.234 342.05 144.254 342.163 143.285 342.056C140.913 341.946 138.624 341.15 136.696 339.764C134.768 338.378 133.284 336.461 132.425 334.248C132.003 333.369 131.797 332.403 131.824 331.429C131.934 331.429 132.118 332.495 132.841 334.076C133.788 336.132 135.244 337.913 137.07 339.249C138.917 340.558 141.07 341.368 143.322 341.602C145.05 341.786 146.141 341.615 146.153 341.725Z" fill="#455A64"/>
<path d="M82.9773 331.208H146.815L144.364 279.603C143.947 269.466 144.008 268.252 143.763 258.9C143.763 258.9 153.287 270.422 160.789 278.512C162.999 280.889 165.908 282.5 169.096 283.111C172.283 283.721 175.582 283.3 178.514 281.907L217.738 254.548L210.384 235.757L174.738 257.576C173.108 256.571 159.22 236.738 149.635 227.103C143.494 220.932 135.219 217.351 126.517 217.101C119.286 216.936 112.052 217.227 104.857 217.971C99.6239 218.537 94.7505 220.906 91.0734 224.672C87.3963 228.439 85.1449 233.368 84.7056 238.613C84.0192 246.899 84.5708 256.509 84.5708 272.861L82.9773 331.208Z" fill="#FE7F7F"/>
<path d="M93.286 222.691C87.2675 225.363 62.127 257.576 60.3496 278.488C59.0258 294.079 89.3635 292.388 89.3635 292.388C89.3635 292.388 91.4228 228.403 90.528 229.31" fill="#FE7F7F"/>
<path d="M87.1571 228.145C87.1571 228.145 87.1571 228.378 87.1571 228.819C87.1571 229.261 87.0713 229.959 87.01 230.732C86.8875 232.399 86.7158 234.801 86.5565 237.78C86.2133 243.737 85.9314 251.962 85.6494 261.069C85.3675 270.177 85.1101 278.414 84.8036 284.359C84.6566 287.338 84.4972 289.74 84.3746 291.407C84.3133 292.179 84.2521 292.805 84.2153 293.319C84.1785 293.834 84.1417 293.981 84.1417 293.981C84.1417 293.981 84.1417 293.748 84.1417 293.319C84.1417 292.89 84.203 292.167 84.2521 291.395C84.3379 289.642 84.4604 287.252 84.5953 284.347C84.8527 278.39 85.0856 270.152 85.3675 261.057C85.6494 251.962 85.9681 243.725 86.3481 237.768C86.532 234.789 86.7281 232.386 86.8875 230.719C86.961 229.959 87.0345 229.322 87.0836 228.819C87.1326 228.317 87.1571 228.145 87.1571 228.145Z" fill="#263238"/>
<path d="M84.6199 269.196C84.3771 269.633 84.0896 270.044 83.7619 270.422C83.198 271.145 82.4013 272.114 81.4697 273.143C80.5381 274.173 79.6556 275.068 79.0182 275.705C78.6774 276.062 78.304 276.386 77.9027 276.673C78.1996 276.28 78.5275 275.911 78.8833 275.57C79.5085 274.908 80.3788 274.001 81.3349 272.972C82.291 271.942 83.0877 270.998 83.6883 270.312C83.9651 269.913 84.2768 269.54 84.6199 269.196Z" fill="#263238"/>
<path d="M173.267 263.913C173.379 262.852 173.58 261.802 173.868 260.775C174.076 259.73 174.358 258.702 174.714 257.698C174.603 258.76 174.402 259.809 174.113 260.836C173.917 261.884 173.634 262.913 173.267 263.913Z" fill="#263238"/>
<path d="M176.847 264.465C176.449 263.312 176.134 262.132 175.903 260.934C175.599 259.757 175.37 258.561 175.216 257.355C175.615 258.504 175.93 259.68 176.16 260.873C176.464 262.055 176.694 263.254 176.847 264.465Z" fill="#263238"/>
<path d="M145.406 260.567C145.406 260.567 145.271 260.457 145.038 260.224C144.805 259.991 144.401 259.623 144.008 259.231C143.126 258.373 141.839 257.11 140.331 255.492C137.34 252.281 133.124 247.574 130.758 241.151C129.622 238.152 129.109 234.953 129.25 231.749C129.302 229.127 129.881 226.542 130.954 224.149C131.717 222.555 132.852 221.168 134.264 220.104C134.654 219.815 135.063 219.553 135.489 219.32L135.931 219.075C135.931 219.075 135.33 219.418 134.362 220.178C132.991 221.263 131.891 222.652 131.15 224.235C130.115 226.607 129.565 229.162 129.532 231.749C129.391 234.92 129.9 238.086 131.028 241.053C133.381 247.427 137.549 252.085 140.503 255.37C141.998 257 143.261 258.275 144.18 259.169L145.173 260.187L145.406 260.567Z" fill="#263238"/>
<path d="M101.768 242.327C101.634 242.438 100.543 241.347 99.415 239.876C98.6195 239.052 97.991 238.082 97.5641 237.02C98.488 237.691 99.2849 238.521 99.9176 239.471C100.702 240.303 101.33 241.271 101.768 242.327Z" fill="#FAFAFA"/>
<path d="M117.029 259.647C115.098 262.175 112.834 264.43 110.3 266.352C111.186 265.028 112.241 263.825 113.438 262.773C114.487 261.572 115.695 260.521 117.029 259.647Z" fill="#FAFAFA"/>
<path d="M131.787 284.494C131.147 283.489 130.57 282.445 130.059 281.368C129.371 280.395 128.744 279.38 128.184 278.328C129.245 278.981 130.097 279.926 130.635 281.049C131.335 282.066 131.735 283.26 131.787 284.494Z" fill="#FAFAFA"/>
<path d="M93.5066 281.687C91.9348 278.581 91.3205 275.079 91.7415 271.623C91.9376 271.623 92.0112 273.915 92.5015 276.673C92.9918 279.431 93.6905 281.613 93.5066 281.687Z" fill="#FAFAFA"/>
<path d="M113.842 292.621C113.073 291.378 112.65 289.951 112.616 288.49C112.387 287.052 112.53 285.579 113.033 284.212C113.229 284.212 113.033 286.137 113.254 288.441C113.474 290.745 114.014 292.56 113.842 292.621Z" fill="#FAFAFA"/>
<path d="M105.801 308.519C104.155 307.872 102.594 307.024 101.155 305.994C99.6025 305.151 98.1578 304.122 96.853 302.93C98.4953 303.586 100.055 304.434 101.499 305.455C103.049 306.302 104.493 307.331 105.801 308.519Z" fill="#FAFAFA"/>
<path d="M137.414 303.824C135.865 304.903 134.261 305.901 132.609 306.815C131.068 307.913 129.472 308.931 127.828 309.867C129.088 308.422 130.59 307.207 132.266 306.276C133.823 305.16 135.566 304.33 137.414 303.824Z" fill="#FAFAFA"/>
<path d="M97.6499 321.794C95.9943 321.78 94.347 321.557 92.7468 321.132C91.0636 320.911 89.4158 320.474 87.8438 319.833C89.5201 319.851 91.1876 320.078 92.8081 320.507C94.4697 320.731 96.0964 321.163 97.6499 321.794Z" fill="#FAFAFA"/>
<path d="M120.89 325.055C118.939 323.296 117.643 320.928 117.213 318.337C117.906 319.403 118.512 320.522 119.027 321.684C119.74 322.754 120.363 323.882 120.89 325.055Z" fill="#FAFAFA"/>
<path d="M142.684 320.005C142.819 320.115 142.157 321.132 141.214 322.272C140.27 323.412 139.375 324.233 139.24 324.123C139.105 324.013 139.767 322.995 140.723 321.855C141.679 320.716 142.55 319.894 142.684 320.005Z" fill="#FAFAFA"/>
<path d="M99.0718 252.612C99.1699 252.759 98.3119 253.494 97.1596 254.279C96.0074 255.063 94.9778 255.505 94.8797 255.406C94.7816 255.308 95.6397 254.512 96.8042 253.739C97.9686 252.967 98.9738 252.465 99.0718 252.612Z" fill="#FAFAFA"/>
<path d="M115.62 234.127C114.772 232.548 114.157 230.856 113.793 229.101C113.225 227.4 112.911 225.624 112.862 223.831C113.53 225.48 114.047 227.187 114.406 228.93C114.972 230.621 115.378 232.361 115.62 234.127Z" fill="#FAFAFA"/>
<path d="M131.505 250.957C130.379 250.801 129.265 250.568 128.171 250.258C127.034 250.147 125.908 249.951 124.8 249.67C125.947 249.425 127.132 249.412 128.283 249.633C129.435 249.855 130.531 250.305 131.505 250.957Z" fill="#FAFAFA"/>
<path d="M142.427 236.652C141.204 236.973 139.927 237.04 138.677 236.848C137.427 236.656 136.229 236.21 135.158 235.536C136.395 235.696 137.623 235.921 138.836 236.211C140.76 236.529 142.415 236.468 142.427 236.652Z" fill="#FAFAFA"/>
<path d="M153.606 252.599C153.345 250.796 153.416 248.96 153.815 247.181C154.002 245.373 154.512 243.612 155.322 241.984C155.128 243.769 154.834 245.541 154.44 247.292C154.259 249.075 153.981 250.847 153.606 252.599Z" fill="#FAFAFA"/>
<path d="M166.734 271.427C164.239 269.459 162.017 267.167 160.127 264.612C162.623 266.58 164.844 268.872 166.734 271.427Z" fill="#FAFAFA"/>
<path d="M177.656 269.932C177.284 271.107 176.707 272.206 175.952 273.18C175.372 274.263 174.613 275.241 173.709 276.073C174.086 274.9 174.663 273.802 175.412 272.824C175.993 271.741 176.751 270.763 177.656 269.932Z" fill="#FAFAFA"/>
<path d="M190.33 263.766C189.431 262.626 188.7 261.363 188.161 260.015C187.434 258.761 186.897 257.406 186.567 255.995C188.202 258.383 189.471 261.002 190.33 263.766Z" fill="#FAFAFA"/>
<path d="M207.589 256.62C206.07 256.672 204.552 256.511 203.078 256.142C201.567 255.978 200.087 255.607 198.677 255.039C200.196 254.979 201.716 255.14 203.188 255.517C204.7 255.673 206.182 256.045 207.589 256.62Z" fill="#FAFAFA"/>
<path d="M70.5234 274.982C71.4994 271.907 72.8803 268.977 74.6298 266.267C73.6473 269.338 72.2668 272.268 70.5234 274.982Z" fill="#FAFAFA"/>
<path d="M79.6801 258.839C78.5273 258.042 77.5058 257.07 76.6525 255.958C75.6451 254.993 74.7896 253.882 74.1151 252.661C75.2626 253.455 76.2799 254.423 77.1305 255.529C78.1335 256.505 78.992 257.62 79.6801 258.839Z" fill="#FAFAFA"/>
<path d="M78.92 284.764C79.0303 284.899 78.3684 285.634 77.4368 286.406C76.5052 287.178 75.6717 287.632 75.5614 287.546C75.4511 287.46 76.1007 286.676 77.0323 285.904C77.9639 285.131 78.8097 284.629 78.92 284.764Z" fill="#FAFAFA"/>
<path d="M82.0089 241.69C82.1438 241.8 81.7515 242.524 81.1386 243.296C80.5257 244.068 79.9129 244.595 79.7658 244.522C79.6187 244.448 80.0232 243.7 80.636 242.928C81.2489 242.156 81.8741 241.58 82.0089 241.69Z" fill="#FAFAFA"/>
<g opacity="0.3">
<path opacity="0.3" d="M133.246 246.152C137.389 259.182 140.601 272.861 144.744 285.879L143.751 258.912C139.715 255.128 136.185 250.839 133.246 246.152Z" fill="black"/>
</g>
<g opacity="0.3">
<path opacity="0.3" d="M83.8843 292.437C80.7831 278.034 81.1509 263.018 86.3359 249.216L83.8843 292.437Z" fill="black"/>
</g>
</svg>
