<svg width="40" height="40" viewBox="0 0 40 40" fill="none" xmlns="http://www.w3.org/2000/svg">
<g clip-path="url(#clip0)">
<path d="M34.5536 3.60767H5.44629C2.878 3.60767 0.795898 5.68977 0.795898 8.25806V35.3497C0.795898 37.918 2.878 40.0001 5.44629 40.0001H34.5536C37.1219 40.0001 39.204 37.918 39.204 35.3497V8.25806C39.204 5.68964 37.1219 3.60767 34.5536 3.60767V3.60767Z" fill="white"/>
<path d="M39.204 12.3451V6.71045C39.204 4.14216 37.1219 2.06006 34.5536 2.06006H5.44629C2.878 2.06006 0.795898 4.14216 0.795898 6.71045V12.3451H39.204Z" fill="#CE5B4C"/>
<path d="M39.204 13.3965V8.25806C39.204 5.68977 37.1219 3.60767 34.5536 3.60767H5.44629C2.878 3.60767 0.795898 5.68977 0.795898 8.25806V13.3965H39.204Z" fill="#FE7F7F"/>
<path d="M8.41323 6.10498C7.51683 6.10498 6.79016 6.83165 6.79016 7.72805C6.79016 8.62445 7.51683 9.35098 8.41323 9.35098C9.30963 9.35098 10.0362 8.62431 10.0362 7.72805C10.0363 6.83165 9.30963 6.10498 8.41323 6.10498Z" fill="#CE5B4C"/>
<path d="M8.41311 0C7.93362 0 7.5448 0.388814 7.5448 0.868312V7.63358C7.5448 8.11321 7.93362 8.50189 8.41311 8.50189C8.89261 8.50189 9.28143 8.11321 9.28143 7.63358V0.868312C9.28143 0.388814 8.89275 0 8.41311 0V0Z" fill="#4D5C7D"/>
<path d="M16.1377 6.10498C15.2413 6.10498 14.5146 6.83165 14.5146 7.72805C14.5146 8.62445 15.2413 9.35098 16.1377 9.35098C17.0341 9.35098 17.7607 8.62431 17.7607 7.72805C17.7608 6.83165 17.0341 6.10498 16.1377 6.10498V6.10498Z" fill="#CE5B4C"/>
<path d="M16.1377 0C15.6582 0 15.2694 0.388814 15.2694 0.868312V7.63358C15.2694 8.11321 15.6582 8.50189 16.1377 8.50189C16.6172 8.50189 17.006 8.11321 17.006 7.63358V0.868312C17.006 0.388814 16.6172 0 16.1377 0V0Z" fill="#4D5C7D"/>
<path d="M23.8622 6.10498C22.9658 6.10498 22.2391 6.83165 22.2391 7.72805C22.2391 8.62445 22.9658 9.35098 23.8622 9.35098C24.7586 9.35098 25.4851 8.62431 25.4851 7.72805C25.4851 6.83165 24.7586 6.10498 23.8622 6.10498V6.10498Z" fill="#CE5B4C"/>
<path d="M23.8622 0C23.3827 0 22.9939 0.388814 22.9939 0.868312V7.63358C22.9939 8.11321 23.3827 8.50189 23.8622 8.50189C24.3417 8.50189 24.7305 8.11321 24.7305 7.63358V0.868312C24.7305 0.388814 24.3417 0 23.8622 0V0Z" fill="#4D5C7D"/>
<path d="M31.5867 6.10498C30.6903 6.10498 29.9636 6.83165 29.9636 7.72805C29.9636 8.62445 30.6903 9.35098 31.5867 9.35098C32.4831 9.35098 33.2096 8.62431 33.2096 7.72805C33.2096 6.83165 32.483 6.10498 31.5867 6.10498Z" fill="#CE5B4C"/>
<path d="M31.5866 0C31.1071 0 30.7183 0.388814 30.7183 0.868312V7.63358C30.7183 8.11321 31.1071 8.50189 31.5866 8.50189C32.0661 8.50189 32.4549 8.11321 32.4549 7.63358V0.868312C32.4549 0.388814 32.0662 0 31.5866 0V0Z" fill="#4D5C7D"/>
<path d="M14.9678 19.8215H18.4781V23.3318H14.9678V19.8215Z" fill="#FE7F7F"/>
<path d="M21.522 19.8215H25.0323V23.3318H21.522V19.8215Z" fill="#FE7F7F"/>
<path d="M28.0764 19.8215H31.5867V23.3318H28.0764V19.8215Z" fill="#FE7F7F"/>
<path d="M8.41321 25.3245H11.9235V28.8348H8.41321V25.3245Z" fill="#FE7F7F"/>
<path d="M14.9678 25.3245H18.4781V28.8348H14.9678V25.3245Z" fill="#FE7F7F"/>
<path d="M21.522 25.3245H25.0323V28.8348H21.522V25.3245Z" fill="#FE7F7F"/>
<path d="M28.0764 25.3245H31.5867V28.8348H28.0764V25.3245Z" fill="#FE7F7F"/>
<path d="M8.41321 30.8274H11.9235V34.3377H8.41321V30.8274Z" fill="#FE7F7F"/>
<path d="M14.9678 30.8274H18.4781V34.3377H14.9678V30.8274Z" fill="#FE7F7F"/>
<path d="M21.522 30.8274H25.0323V34.3377H21.522V30.8274Z" fill="#FE7F7F"/>
</g>
<defs>
<clipPath id="clip0">
<rect width="40" height="40" fill="white"/>
</clipPath>
</defs>
</svg>
